<?xml version="1.0" encoding="UTF-8"?><svg xmlns="http://www.w3.org/2000/svg" xmlns:xlink="http://www.w3.org/1999/xlink" fill-opacity="1" color-rendering="auto" color-interpolation="auto" text-rendering="auto" stroke="black" stroke-linecap="square" width="240" stroke-miterlimit="10" shape-rendering="auto" stroke-opacity="1" fill="black" stroke-dasharray="none" font-weight="normal" stroke-width="1" height="302" font-family="'Dialog'" font-style="normal" stroke-linejoin="miter" font-size="12px" stroke-dashoffset="0" image-rendering="auto">
  <!--Generated by ySVG 2.5-->
  <defs id="genericDefs"/>
  <g>
    <defs id="defs1">
      <clipPath clipPathUnits="userSpaceOnUse" id="clipPath1">
        <path d="M0 0 L240 0 L240 302 L0 302 L0 0 Z"/>
      </clipPath>
      <clipPath clipPathUnits="userSpaceOnUse" id="clipPath2">
        <path d="M104 37 L344 37 L344 339 L104 339 L104 37 Z"/>
      </clipPath>
    </defs>
    <g fill="white" text-rendering="geometricPrecision" shape-rendering="geometricPrecision" transform="translate(-104,-37)" stroke="white">
      <rect x="104" width="240" height="302" y="37" clip-path="url(#clipPath2)" stroke="none"/>
    </g>
    <g fill="rgb(204,255,204)" text-rendering="geometricPrecision" shape-rendering="geometricPrecision" transform="matrix(1,0,0,1,-104,-37)" stroke="rgb(204,255,204)">
      <rect x="163" width="30" height="30" y="52" clip-path="url(#clipPath2)" stroke="none"/>
    </g>
    <g text-rendering="geometricPrecision" stroke-miterlimit="1.45" shape-rendering="geometricPrecision" transform="matrix(1,0,0,1,-104,-37)" stroke-linecap="butt">
      <rect fill="none" x="163" width="30" height="30" y="52" clip-path="url(#clipPath2)"/>
      <text x="170.6919" font-size="18px" y="73.2314" clip-path="url(#clipPath2)" font-family="sans-serif" stroke="none" font-weight="bold" xml:space="preserve">U</text>
    </g>
    <g fill="rgb(255,255,153)" text-rendering="geometricPrecision" shape-rendering="geometricPrecision" transform="matrix(1,0,0,1,-104,-37)" stroke="rgb(255,255,153)">
      <rect x="193" width="30" height="30" y="52" clip-path="url(#clipPath2)" stroke="none"/>
    </g>
    <g text-rendering="geometricPrecision" stroke-miterlimit="1.45" shape-rendering="geometricPrecision" transform="matrix(1,0,0,1,-104,-37)" stroke-linecap="butt">
      <rect fill="none" x="193" width="30" height="30" y="52" clip-path="url(#clipPath2)"/>
      <text x="201.395" font-size="18px" y="73.2314" clip-path="url(#clipPath2)" font-family="sans-serif" stroke="none" font-weight="bold" xml:space="preserve">C</text>
    </g>
    <g fill="rgb(255,204,153)" text-rendering="geometricPrecision" shape-rendering="geometricPrecision" transform="matrix(1,0,0,1,-104,-37)" stroke="rgb(255,204,153)">
      <rect x="223" width="30" height="30" y="52" clip-path="url(#clipPath2)" stroke="none"/>
    </g>
    <g text-rendering="geometricPrecision" stroke-miterlimit="1.45" shape-rendering="geometricPrecision" transform="matrix(1,0,0,1,-104,-37)" stroke-linecap="butt">
      <rect fill="none" x="223" width="30" height="30" y="52" clip-path="url(#clipPath2)"/>
      <text x="231.0347" font-size="18px" y="73.2314" clip-path="url(#clipPath2)" font-family="sans-serif" stroke="none" font-weight="bold" xml:space="preserve">A</text>
    </g>
    <g fill="rgb(204,255,255)" text-rendering="geometricPrecision" shape-rendering="geometricPrecision" transform="matrix(1,0,0,1,-104,-37)" stroke="rgb(204,255,255)">
      <rect x="253" width="30" height="30" y="52" clip-path="url(#clipPath2)" stroke="none"/>
    </g>
    <g text-rendering="geometricPrecision" stroke-miterlimit="1.45" shape-rendering="geometricPrecision" transform="matrix(1,0,0,1,-104,-37)" stroke-linecap="butt">
      <rect fill="none" x="253" width="30" height="30" y="52" clip-path="url(#clipPath2)"/>
      <text x="260.6128" font-size="18px" y="73.2314" clip-path="url(#clipPath2)" font-family="sans-serif" stroke="none" font-weight="bold" xml:space="preserve">G</text>
    </g>
    <g fill="rgb(204,255,204)" text-rendering="geometricPrecision" shape-rendering="geometricPrecision" transform="matrix(1,0,0,1,-104,-37)" stroke="rgb(204,255,204)">
      <rect x="163" width="30" height="30" y="90" clip-path="url(#clipPath2)" stroke="none"/>
    </g>
    <g text-rendering="geometricPrecision" stroke-miterlimit="1.45" shape-rendering="geometricPrecision" transform="matrix(1,0,0,1,-104,-37)" stroke-linecap="butt">
      <rect fill="none" x="163" width="30" height="30" y="90" clip-path="url(#clipPath2)"/>
      <text x="170.6919" font-size="18px" y="111.2314" clip-path="url(#clipPath2)" font-family="sans-serif" stroke="none" font-weight="bold" xml:space="preserve">U</text>
    </g>
    <g fill="rgb(255,255,153)" text-rendering="geometricPrecision" shape-rendering="geometricPrecision" transform="matrix(1,0,0,1,-104,-37)" stroke="rgb(255,255,153)">
      <rect x="193" width="30" height="30" y="90" clip-path="url(#clipPath2)" stroke="none"/>
    </g>
    <g text-rendering="geometricPrecision" stroke-miterlimit="1.45" shape-rendering="geometricPrecision" transform="matrix(1,0,0,1,-104,-37)" stroke-linecap="butt">
      <rect fill="none" x="193" width="30" height="30" y="90" clip-path="url(#clipPath2)"/>
      <text x="201.395" font-size="18px" y="111.2314" clip-path="url(#clipPath2)" font-family="sans-serif" stroke="none" font-weight="bold" xml:space="preserve">C</text>
    </g>
    <g fill="rgb(255,204,153)" text-rendering="geometricPrecision" shape-rendering="geometricPrecision" transform="matrix(1,0,0,1,-104,-37)" stroke="rgb(255,204,153)">
      <rect x="223" width="30" height="30" y="90" clip-path="url(#clipPath2)" stroke="none"/>
    </g>
    <g text-rendering="geometricPrecision" stroke-miterlimit="1.45" shape-rendering="geometricPrecision" transform="matrix(1,0,0,1,-104,-37)" stroke-linecap="butt">
      <rect fill="none" x="223" width="30" height="30" y="90" clip-path="url(#clipPath2)"/>
      <text x="231.0347" font-size="18px" y="111.2314" clip-path="url(#clipPath2)" font-family="sans-serif" stroke="none" font-weight="bold" xml:space="preserve">A</text>
    </g>
    <g fill="rgb(204,255,255)" text-rendering="geometricPrecision" shape-rendering="geometricPrecision" transform="matrix(1,0,0,1,-104,-37)" stroke="rgb(204,255,255)">
      <rect x="253" width="30" height="30" y="90" clip-path="url(#clipPath2)" stroke="none"/>
    </g>
    <g text-rendering="geometricPrecision" stroke-miterlimit="1.45" shape-rendering="geometricPrecision" transform="matrix(1,0,0,1,-104,-37)" stroke-linecap="butt">
      <rect fill="none" x="253" width="30" height="30" y="90" clip-path="url(#clipPath2)"/>
      <text x="260.6128" font-size="18px" y="111.2314" clip-path="url(#clipPath2)" font-family="sans-serif" stroke="none" font-weight="bold" xml:space="preserve">G</text>
    </g>
    <g fill="rgb(204,255,204)" text-rendering="geometricPrecision" shape-rendering="geometricPrecision" transform="matrix(1,0,0,1,-104,-37)" stroke="rgb(204,255,204)">
      <rect x="163" width="30" height="30" y="128" clip-path="url(#clipPath2)" stroke="none"/>
    </g>
    <g text-rendering="geometricPrecision" stroke-miterlimit="1.45" shape-rendering="geometricPrecision" transform="matrix(1,0,0,1,-104,-37)" stroke-linecap="butt">
      <rect fill="none" x="163" width="30" height="30" y="128" clip-path="url(#clipPath2)"/>
      <text x="170.6919" font-size="18px" y="149.2314" clip-path="url(#clipPath2)" font-family="sans-serif" stroke="none" font-weight="bold" xml:space="preserve">U</text>
    </g>
    <g fill="rgb(255,255,153)" text-rendering="geometricPrecision" shape-rendering="geometricPrecision" transform="matrix(1,0,0,1,-104,-37)" stroke="rgb(255,255,153)">
      <rect x="193" width="30" height="30" y="128" clip-path="url(#clipPath2)" stroke="none"/>
    </g>
    <g text-rendering="geometricPrecision" stroke-miterlimit="1.45" shape-rendering="geometricPrecision" transform="matrix(1,0,0,1,-104,-37)" stroke-linecap="butt">
      <rect fill="none" x="193" width="30" height="30" y="128" clip-path="url(#clipPath2)"/>
      <text x="201.395" font-size="18px" y="149.2314" clip-path="url(#clipPath2)" font-family="sans-serif" stroke="none" font-weight="bold" xml:space="preserve">C</text>
    </g>
    <g fill="rgb(255,204,153)" text-rendering="geometricPrecision" shape-rendering="geometricPrecision" transform="matrix(1,0,0,1,-104,-37)" stroke="rgb(255,204,153)">
      <rect x="223" width="30" height="30" y="128" clip-path="url(#clipPath2)" stroke="none"/>
    </g>
    <g text-rendering="geometricPrecision" stroke-miterlimit="1.45" shape-rendering="geometricPrecision" transform="matrix(1,0,0,1,-104,-37)" stroke-linecap="butt">
      <rect fill="none" x="223" width="30" height="30" y="128" clip-path="url(#clipPath2)"/>
      <text x="231.0347" font-size="18px" y="149.2314" clip-path="url(#clipPath2)" font-family="sans-serif" stroke="none" font-weight="bold" xml:space="preserve">A</text>
    </g>
    <g fill="rgb(204,255,255)" text-rendering="geometricPrecision" shape-rendering="geometricPrecision" transform="matrix(1,0,0,1,-104,-37)" stroke="rgb(204,255,255)">
      <rect x="253" width="30" height="30" y="128" clip-path="url(#clipPath2)" stroke="none"/>
    </g>
    <g text-rendering="geometricPrecision" stroke-miterlimit="1.45" shape-rendering="geometricPrecision" transform="matrix(1,0,0,1,-104,-37)" stroke-linecap="butt">
      <rect fill="none" x="253" width="30" height="30" y="128" clip-path="url(#clipPath2)"/>
      <text x="260.6128" font-size="18px" y="149.2314" clip-path="url(#clipPath2)" font-family="sans-serif" stroke="none" font-weight="bold" xml:space="preserve">G</text>
    </g>
    <g fill="rgb(255,204,0)" text-rendering="geometricPrecision" shape-rendering="geometricPrecision" transform="matrix(1,0,0,1,-104,-37)" stroke="rgb(255,204,0)">
      <rect x="119" y="166" clip-path="url(#clipPath2)" width="150" rx="4" ry="4" height="30" stroke="none"/>
    </g>
    <g text-rendering="geometricPrecision" stroke-miterlimit="1.45" shape-rendering="geometricPrecision" transform="matrix(1,0,0,1,-104,-37)" stroke-linecap="butt">
      <rect x="119" y="166" clip-path="url(#clipPath2)" fill="none" width="150" rx="4" ry="4" height="30"/>
      <text x="129.8838" font-size="18px" y="187.2314" clip-path="url(#clipPath2)" font-family="sans-serif" stroke="none" xml:space="preserve">glutaminacido</text>
    </g>
    <g fill="yellow" text-rendering="geometricPrecision" shape-rendering="geometricPrecision" transform="matrix(1,0,0,1,-104,-37)" stroke="yellow">
      <rect x="149" width="30" height="30" y="204" clip-path="url(#clipPath2)" stroke="none"/>
    </g>
    <g text-rendering="geometricPrecision" stroke-miterlimit="1.45" shape-rendering="geometricPrecision" transform="matrix(1,0,0,1,-104,-37)" stroke-linecap="butt">
      <rect fill="none" x="149" width="30" height="30" y="204" clip-path="url(#clipPath2)"/>
      <text x="158.8232" font-size="18px" y="225.2314" clip-path="url(#clipPath2)" font-family="sans-serif" stroke="none" xml:space="preserve">F</text>
    </g>
    <g fill="yellow" text-rendering="geometricPrecision" shape-rendering="geometricPrecision" transform="matrix(1,0,0,1,-104,-37)" stroke="yellow">
      <rect x="179" width="30" height="30" y="204" clip-path="url(#clipPath2)" stroke="none"/>
    </g>
    <g text-rendering="geometricPrecision" stroke-miterlimit="1.45" shape-rendering="geometricPrecision" transform="matrix(1,0,0,1,-104,-37)" stroke-linecap="butt">
      <rect fill="none" x="179" width="30" height="30" y="204" clip-path="url(#clipPath2)"/>
      <text x="188.9858" font-size="18px" y="225.2314" clip-path="url(#clipPath2)" font-family="sans-serif" stroke="none" xml:space="preserve">L</text>
    </g>
    <g fill="rgb(153,204,0)" text-rendering="geometricPrecision" shape-rendering="geometricPrecision" transform="matrix(1,0,0,1,-104,-37)" stroke="rgb(153,204,0)">
      <rect x="209" width="30" height="30" y="204" clip-path="url(#clipPath2)" stroke="none"/>
    </g>
    <g text-rendering="geometricPrecision" stroke-miterlimit="1.45" shape-rendering="geometricPrecision" transform="matrix(1,0,0,1,-104,-37)" stroke-linecap="butt">
      <rect fill="none" x="209" width="30" height="30" y="204" clip-path="url(#clipPath2)"/>
      <text x="218.2871" font-size="18px" y="225.2314" clip-path="url(#clipPath2)" font-family="sans-serif" stroke="none" xml:space="preserve">S</text>
    </g>
    <g fill="rgb(153,204,0)" text-rendering="geometricPrecision" shape-rendering="geometricPrecision" transform="matrix(1,0,0,1,-104,-37)" stroke="rgb(153,204,0)">
      <rect x="239" width="30" height="30" y="204" clip-path="url(#clipPath2)" stroke="none"/>
    </g>
    <g text-rendering="geometricPrecision" stroke-miterlimit="1.45" shape-rendering="geometricPrecision" transform="matrix(1,0,0,1,-104,-37)" stroke-linecap="butt">
      <rect fill="none" x="239" width="30" height="30" y="204" clip-path="url(#clipPath2)"/>
      <text x="248.5024" font-size="18px" y="225.2314" clip-path="url(#clipPath2)" font-family="sans-serif" stroke="none" xml:space="preserve">Y</text>
    </g>
    <g fill="rgb(153,204,0)" text-rendering="geometricPrecision" shape-rendering="geometricPrecision" transform="matrix(1,0,0,1,-104,-37)" stroke="rgb(153,204,0)">
      <rect x="269" width="30" height="30" y="204" clip-path="url(#clipPath2)" stroke="none"/>
    </g>
    <g text-rendering="geometricPrecision" stroke-miterlimit="1.45" shape-rendering="geometricPrecision" transform="matrix(1,0,0,1,-104,-37)" stroke-linecap="butt">
      <rect fill="none" x="269" width="30" height="30" y="204" clip-path="url(#clipPath2)"/>
      <text x="277.7158" font-size="18px" y="225.2314" clip-path="url(#clipPath2)" font-family="sans-serif" stroke="none" xml:space="preserve">C</text>
    </g>
    <g fill="white" text-rendering="geometricPrecision" shape-rendering="geometricPrecision" transform="matrix(1,0,0,1,-104,-37)" stroke="white">
      <rect x="299" width="30" height="30" y="204" clip-path="url(#clipPath2)" stroke="none"/>
    </g>
    <g text-rendering="geometricPrecision" stroke-miterlimit="1.45" shape-rendering="geometricPrecision" transform="matrix(1,0,0,1,-104,-37)" stroke-linecap="butt">
      <rect fill="none" x="299" width="30" height="30" y="204" clip-path="url(#clipPath2)"/>
      <text x="306.7578" font-size="18px" y="225.2314" clip-path="url(#clipPath2)" font-family="sans-serif" stroke="none" xml:space="preserve">⏹</text>
    </g>
    <g fill="yellow" text-rendering="geometricPrecision" shape-rendering="geometricPrecision" transform="matrix(1,0,0,1,-104,-37)" stroke="yellow">
      <rect x="149" width="30" height="30" y="234" clip-path="url(#clipPath2)" stroke="none"/>
    </g>
    <g text-rendering="geometricPrecision" stroke-miterlimit="1.45" shape-rendering="geometricPrecision" transform="matrix(1,0,0,1,-104,-37)" stroke-linecap="butt">
      <rect fill="none" x="149" width="30" height="30" y="234" clip-path="url(#clipPath2)"/>
      <text x="155.1011" font-size="18px" y="255.2314" clip-path="url(#clipPath2)" font-family="sans-serif" stroke="none" xml:space="preserve">W</text>
    </g>
    <g fill="yellow" text-rendering="geometricPrecision" shape-rendering="geometricPrecision" transform="matrix(1,0,0,1,-104,-37)" stroke="yellow">
      <rect x="179" width="30" height="30" y="234" clip-path="url(#clipPath2)" stroke="none"/>
    </g>
    <g text-rendering="geometricPrecision" stroke-miterlimit="1.45" shape-rendering="geometricPrecision" transform="matrix(1,0,0,1,-104,-37)" stroke-linecap="butt">
      <rect fill="none" x="179" width="30" height="30" y="234" clip-path="url(#clipPath2)"/>
      <text x="188.5728" font-size="18px" y="255.2314" clip-path="url(#clipPath2)" font-family="sans-serif" stroke="none" xml:space="preserve">P</text>
    </g>
    <g fill="rgb(153,204,255)" text-rendering="geometricPrecision" shape-rendering="geometricPrecision" transform="matrix(1,0,0,1,-104,-37)" stroke="rgb(153,204,255)">
      <rect x="209" width="30" height="30" y="234" clip-path="url(#clipPath2)" stroke="none"/>
    </g>
    <g text-rendering="geometricPrecision" stroke-miterlimit="1.45" shape-rendering="geometricPrecision" transform="matrix(1,0,0,1,-104,-37)" stroke-linecap="butt">
      <rect fill="none" x="209" width="30" height="30" y="234" clip-path="url(#clipPath2)"/>
      <text x="217.2324" font-size="18px" y="255.2314" clip-path="url(#clipPath2)" font-family="sans-serif" stroke="none" xml:space="preserve">H</text>
    </g>
    <g fill="rgb(153,204,0)" text-rendering="geometricPrecision" shape-rendering="geometricPrecision" transform="matrix(1,0,0,1,-104,-37)" stroke="rgb(153,204,0)">
      <rect x="239" width="30" height="30" y="234" clip-path="url(#clipPath2)" stroke="none"/>
    </g>
    <g text-rendering="geometricPrecision" stroke-miterlimit="1.45" shape-rendering="geometricPrecision" transform="matrix(1,0,0,1,-104,-37)" stroke-linecap="butt">
      <rect fill="none" x="239" width="30" height="30" y="234" clip-path="url(#clipPath2)"/>
      <text x="246.916" font-size="18px" y="255.2314" clip-path="url(#clipPath2)" font-family="sans-serif" stroke="none" xml:space="preserve">Q</text>
    </g>
    <g fill="yellow" text-rendering="geometricPrecision" shape-rendering="geometricPrecision" transform="matrix(1,0,0,1,-104,-37)" stroke="yellow">
      <rect x="149" width="30" height="30" y="264" clip-path="url(#clipPath2)" stroke="none"/>
    </g>
    <g text-rendering="geometricPrecision" stroke-miterlimit="1.45" shape-rendering="geometricPrecision" transform="matrix(1,0,0,1,-104,-37)" stroke-linecap="butt">
      <rect fill="none" x="149" width="30" height="30" y="264" clip-path="url(#clipPath2)"/>
      <text x="161.3457" font-size="18px" y="285.2314" clip-path="url(#clipPath2)" font-family="sans-serif" stroke="none" xml:space="preserve">I</text>
    </g>
    <g fill="rgb(153,204,255)" text-rendering="geometricPrecision" shape-rendering="geometricPrecision" transform="matrix(1,0,0,1,-104,-37)" stroke="rgb(153,204,255)">
      <rect x="269" width="30" height="30" y="234" clip-path="url(#clipPath2)" stroke="none"/>
    </g>
    <g text-rendering="geometricPrecision" stroke-miterlimit="1.45" shape-rendering="geometricPrecision" transform="matrix(1,0,0,1,-104,-37)" stroke-linecap="butt">
      <rect fill="none" x="269" width="30" height="30" y="234" clip-path="url(#clipPath2)"/>
      <text x="277.7466" font-size="18px" y="255.2314" clip-path="url(#clipPath2)" font-family="sans-serif" stroke="none" xml:space="preserve">R</text>
    </g>
    <g fill="white" text-rendering="geometricPrecision" shape-rendering="geometricPrecision" transform="matrix(1,0,0,1,-104,-37)" stroke="white">
      <rect x="119" width="30" height="30" y="204" clip-path="url(#clipPath2)" stroke="none"/>
    </g>
    <g text-rendering="geometricPrecision" stroke-miterlimit="1.45" shape-rendering="geometricPrecision" transform="matrix(1,0,0,1,-104,-37)" stroke-linecap="butt">
      <rect fill="none" x="119" width="30" height="30" y="204" clip-path="url(#clipPath2)"/>
      <text x="126.7578" font-size="18px" y="225.2314" clip-path="url(#clipPath2)" font-family="sans-serif" stroke="none" xml:space="preserve">⏵</text>
    </g>
    <g fill="yellow" text-rendering="geometricPrecision" shape-rendering="geometricPrecision" transform="matrix(1,0,0,1,-104,-37)" stroke="yellow">
      <rect x="179" width="30" height="30" y="264" clip-path="url(#clipPath2)" stroke="none"/>
    </g>
    <g text-rendering="geometricPrecision" stroke-miterlimit="1.45" shape-rendering="geometricPrecision" transform="matrix(1,0,0,1,-104,-37)" stroke-linecap="butt">
      <rect fill="none" x="179" width="30" height="30" y="264" clip-path="url(#clipPath2)"/>
      <text x="186.2349" font-size="18px" y="285.2314" clip-path="url(#clipPath2)" font-family="sans-serif" stroke="none" xml:space="preserve">M</text>
    </g>
    <g fill="rgb(153,204,0)" text-rendering="geometricPrecision" shape-rendering="geometricPrecision" transform="matrix(1,0,0,1,-104,-37)" stroke="rgb(153,204,0)">
      <rect x="209" width="30" height="30" y="264" clip-path="url(#clipPath2)" stroke="none"/>
    </g>
    <g text-rendering="geometricPrecision" stroke-miterlimit="1.45" shape-rendering="geometricPrecision" transform="matrix(1,0,0,1,-104,-37)" stroke-linecap="butt">
      <rect fill="none" x="209" width="30" height="30" y="264" clip-path="url(#clipPath2)"/>
      <text x="218.5024" font-size="18px" y="285.2314" clip-path="url(#clipPath2)" font-family="sans-serif" stroke="none" xml:space="preserve">T</text>
    </g>
    <g fill="rgb(153,204,0)" text-rendering="geometricPrecision" shape-rendering="geometricPrecision" transform="matrix(1,0,0,1,-104,-37)" stroke="rgb(153,204,0)">
      <rect x="239" width="30" height="30" y="264" clip-path="url(#clipPath2)" stroke="none"/>
    </g>
    <g text-rendering="geometricPrecision" stroke-miterlimit="1.45" shape-rendering="geometricPrecision" transform="matrix(1,0,0,1,-104,-37)" stroke-linecap="butt">
      <rect fill="none" x="239" width="30" height="30" y="264" clip-path="url(#clipPath2)"/>
      <text x="247.2676" font-size="18px" y="285.2314" clip-path="url(#clipPath2)" font-family="sans-serif" stroke="none" xml:space="preserve">N</text>
    </g>
    <g fill="yellow" text-rendering="geometricPrecision" shape-rendering="geometricPrecision" transform="matrix(1,0,0,1,-104,-37)" stroke="yellow">
      <rect x="149" width="30" height="30" y="294" clip-path="url(#clipPath2)" stroke="none"/>
    </g>
    <g text-rendering="geometricPrecision" stroke-miterlimit="1.45" shape-rendering="geometricPrecision" transform="matrix(1,0,0,1,-104,-37)" stroke-linecap="butt">
      <rect fill="none" x="149" width="30" height="30" y="294" clip-path="url(#clipPath2)"/>
      <text x="157.8433" font-size="18px" y="315.2314" clip-path="url(#clipPath2)" font-family="sans-serif" stroke="none" xml:space="preserve">V</text>
    </g>
    <g fill="rgb(153,204,255)" text-rendering="geometricPrecision" shape-rendering="geometricPrecision" transform="matrix(1,0,0,1,-104,-37)" stroke="rgb(153,204,255)">
      <rect x="269" width="30" height="30" y="264" clip-path="url(#clipPath2)" stroke="none"/>
    </g>
    <g text-rendering="geometricPrecision" stroke-miterlimit="1.45" shape-rendering="geometricPrecision" transform="matrix(1,0,0,1,-104,-37)" stroke-linecap="butt">
      <rect fill="none" x="269" width="30" height="30" y="264" clip-path="url(#clipPath2)"/>
      <text x="278.0981" font-size="18px" y="285.2314" clip-path="url(#clipPath2)" font-family="sans-serif" stroke="none" xml:space="preserve">K</text>
    </g>
    <g fill="yellow" text-rendering="geometricPrecision" shape-rendering="geometricPrecision" transform="matrix(1,0,0,1,-104,-37)" stroke="yellow">
      <rect x="179" width="30" height="30" y="294" clip-path="url(#clipPath2)" stroke="none"/>
    </g>
    <g text-rendering="geometricPrecision" stroke-miterlimit="1.45" shape-rendering="geometricPrecision" transform="matrix(1,0,0,1,-104,-37)" stroke-linecap="butt">
      <rect fill="none" x="179" width="30" height="30" y="294" clip-path="url(#clipPath2)"/>
      <text x="187.8433" font-size="18px" y="315.2314" clip-path="url(#clipPath2)" font-family="sans-serif" stroke="none" xml:space="preserve">A</text>
    </g>
    <g fill="rgb(255,153,204)" text-rendering="geometricPrecision" shape-rendering="geometricPrecision" transform="matrix(1,0,0,1,-104,-37)" stroke="rgb(255,153,204)">
      <rect x="209" width="30" height="30" y="294" clip-path="url(#clipPath2)" stroke="none"/>
    </g>
    <g text-rendering="geometricPrecision" stroke-miterlimit="1.45" shape-rendering="geometricPrecision" transform="matrix(1,0,0,1,-104,-37)" stroke-linecap="butt">
      <rect fill="none" x="209" width="30" height="30" y="294" clip-path="url(#clipPath2)"/>
      <text x="217.0698" font-size="18px" y="315.2314" clip-path="url(#clipPath2)" font-family="sans-serif" stroke="none" xml:space="preserve">D</text>
    </g>
    <g fill="rgb(255,153,204)" text-rendering="geometricPrecision" shape-rendering="geometricPrecision" transform="matrix(1,0,0,1,-104,-37)" stroke="rgb(255,153,204)">
      <rect x="239" width="30" height="30" y="294" clip-path="url(#clipPath2)" stroke="none"/>
    </g>
    <g text-rendering="geometricPrecision" stroke-miterlimit="1.45" shape-rendering="geometricPrecision" transform="matrix(1,0,0,1,-104,-37)" stroke-linecap="butt">
      <rect fill="none" x="239" width="30" height="30" y="294" clip-path="url(#clipPath2)"/>
      <text x="248.3135" font-size="18px" y="315.2314" clip-path="url(#clipPath2)" font-family="sans-serif" stroke="none" xml:space="preserve">E</text>
    </g>
    <g fill="yellow" text-rendering="geometricPrecision" shape-rendering="geometricPrecision" transform="matrix(1,0,0,1,-104,-37)" stroke="yellow">
      <rect x="269" width="30" height="30" y="294" clip-path="url(#clipPath2)" stroke="none"/>
    </g>
    <g text-rendering="geometricPrecision" stroke-miterlimit="1.45" shape-rendering="geometricPrecision" transform="matrix(1,0,0,1,-104,-37)" stroke-linecap="butt">
      <rect fill="none" x="269" width="30" height="30" y="294" clip-path="url(#clipPath2)"/>
      <text x="277.0259" font-size="18px" y="315.2314" clip-path="url(#clipPath2)" font-family="sans-serif" stroke="none" xml:space="preserve">G</text>
    </g>
    <g fill="rgb(255,204,0)" text-rendering="geometricPrecision" shape-rendering="geometricPrecision" transform="matrix(1,0,0,1,-104,-37)" stroke="rgb(255,204,0)">
      <rect x="269" y="166" clip-path="url(#clipPath2)" width="60" rx="4" ry="4" height="30" stroke="none"/>
    </g>
    <g text-rendering="geometricPrecision" stroke-miterlimit="1.45" shape-rendering="geometricPrecision" transform="matrix(1,0,0,1,-104,-37)" stroke-linecap="butt">
      <rect x="269" y="166" clip-path="url(#clipPath2)" fill="none" width="60" rx="4" ry="4" height="30"/>
      <text x="283.8213" font-size="18px" y="187.2314" clip-path="url(#clipPath2)" font-family="sans-serif" stroke="none" xml:space="preserve">Glu</text>
    </g>
  </g>
</svg>
