<svg version="1.1" xmlns="http://www.w3.org/2000/svg" xmlns:xlink="http://www.w3.org/1999/xlink" width="2320" height="1934"><defs/><g transform="translate(-1158.9658859149733,101.51493857943365) scale(2,2)"><path fill="rgb(255,255,255)" stroke="#555555" paint-order="fill stroke markers" d=" M 1591.8025455288364 470.7666489510066 L 1579.8025455288364 482.7666489510066 L 1579.8025455288364 609.2364935024195 L 1591.8025455288364 621.2364935024195 L 1706.9235914195172 621.2364935024195 L 1718.9235914195172 609.2364935024195 L 1718.9235914195172 482.7666489510066 L 1706.9235914195172 470.7666489510066 Z" fill-opacity="0.5" stroke-miterlimit="10" stroke-width="1.25"/><path fill="rgb(255,255,255)" stroke="rgb(85,85,85)" paint-order="fill stroke markers" d="" fill-opacity="0.5" stroke-opacity="1" stroke-miterlimit="10" stroke-width="1.25"/><path fill="none" stroke="rgb(85,85,85)" paint-order="fill stroke markers" d=" M 1104.4908311359823 110.76237868045529 L 1212.8298071113843 131.33060376431723" stroke-opacity="1" stroke-linejoin="round" stroke-miterlimit="10" stroke-width="1.25"/><path fill="rgb(85,85,85)" stroke="none" paint-order="stroke fill markers" d=" M 1204.2129866494186 135.18451447179194 L 1215.9091217555786 131.86300053557946 L 1206.2342295429125 124.49900081237902 Z" fill-opacity="1"/><path fill="none" stroke="rgb(0,0,0)" paint-order="fill stroke markers" d=" M 1104.4908311359823 110.76237868045529 L 1212.8298071113843 131.33060376431723" stroke-opacity="0" stroke-linecap="round" stroke-linejoin="round" stroke-miterlimit="10" stroke-width="20"/><path fill="none" stroke="rgb(85,85,85)" paint-order="fill stroke markers" d=" M 985.3245513201318 131.75389465499157 L 1083.2408311359823 110.76237868045529" stroke-opacity="1" stroke-linejoin="round" stroke-miterlimit="10" stroke-width="1.25"/><path fill="none" stroke="rgb(0,0,0)" paint-order="fill stroke markers" d=" M 985.3245513201318 131.75389465499157 L 1083.2408311359823 110.76237868045529" stroke-opacity="0" stroke-linecap="round" stroke-linejoin="round" stroke-miterlimit="10" stroke-width="20"/><path fill="none" stroke="rgb(85,85,85)" paint-order="fill stroke markers" d=" M 1098.1513848422994 46.16874919113204 L 1094.5762304222667 100.05494822168056" stroke-opacity="1" stroke-linejoin="round" stroke-miterlimit="10" stroke-width="1.25"/><path fill="rgb(255,255,255)" stroke="rgb(255,255,255)" paint-order="fill stroke markers" d=" M 1100.1668198660004 97.74752111075868 A 5.4375 5.4375 0 1 1 1100.1668171472506 97.74208361166492 Z" fill-opacity="1" stroke-opacity="1" stroke-miterlimit="10"/><path fill="none" stroke="rgb(85,85,85)" paint-order="fill stroke markers" d=" M 1100.1668198660004 97.74752111075868 A 5.4375 5.4375 0 1 1 1100.1668171472506 97.74208361166492 Z" stroke-opacity="1" stroke-miterlimit="10"/><path fill="none" stroke="rgb(0,0,0)" paint-order="fill stroke markers" d=" M 1098.1513848422994 46.16874919113204 L 1094.5762304222667 100.05494822168056" stroke-opacity="0" stroke-linecap="round" stroke-miterlimit="10" stroke-width="20"/><path fill="none" stroke="rgb(85,85,85)" paint-order="fill stroke markers" d=" M 959.4838466097684 200.90574440082344 L 1083.2408311359823 110.76237868045529" stroke-opacity="1" stroke-linejoin="round" stroke-miterlimit="10" stroke-width="1.25"/><path fill="none" stroke="rgb(0,0,0)" paint-order="fill stroke markers" d=" M 959.4838466097684 200.90574440082344 L 1083.2408311359823 110.76237868045529" stroke-opacity="0" stroke-linecap="round" stroke-linejoin="round" stroke-miterlimit="10" stroke-width="20"/><path fill="none" stroke="rgb(85,85,85)" paint-order="fill stroke markers" d=" M 955.635395665023 36.932710916763185 L 1083.2408311359823 110.76237868045529" stroke-opacity="1" stroke-linejoin="round" stroke-miterlimit="10" stroke-width="1.25"/><path fill="none" stroke="rgb(0,0,0)" paint-order="fill stroke markers" d=" M 955.635395665023 36.932710916763185 L 1083.2408311359823 110.76237868045529" stroke-opacity="0" stroke-linecap="round" stroke-linejoin="round" stroke-miterlimit="10" stroke-width="20"/><path fill="none" stroke="rgb(85,85,85)" paint-order="fill stroke markers" d=" M 1104.4908311359823 110.76237868045529 L 1146.469010851137 188.04184524587345" stroke-opacity="1" stroke-linejoin="round" stroke-miterlimit="10" stroke-width="1.25"/><path fill="rgb(85,85,85)" stroke="none" paint-order="stroke fill markers" d=" M 1138.2234033996244 183.71494005868337 L 1148.2274442306361 190.62516424473188 L 1147.753199080868 178.4757970682934 Z" fill-opacity="1"/><path fill="none" stroke="rgb(0,0,0)" paint-order="fill stroke markers" d=" M 1104.4908311359823 110.76237868045529 L 1146.469010851137 188.04184524587345" stroke-opacity="0" stroke-linecap="round" stroke-linejoin="round" stroke-miterlimit="10" stroke-width="20"/><path fill="none" stroke="rgb(85,85,85)" paint-order="fill stroke markers" d=" M 1335.5641686269055 167.51903768058224 L 1399.8725352400047 226.37673414484465" stroke-opacity="1" stroke-linejoin="round" stroke-miterlimit="10" stroke-width="1.25"/><path fill="rgb(85,85,85)" stroke="none" paint-order="stroke fill markers" d=" M 1390.6239741987738 225.02083226479408 L 1402.3300750945214 228.3070509228536 L 1397.9353894835203 216.97043901141984 Z" fill-opacity="1"/><path fill="none" stroke="rgb(0,0,0)" paint-order="fill stroke markers" d=" M 1335.5641686269055 167.51903768058224 L 1399.8725352400047 226.37673414484465" stroke-opacity="0" stroke-linecap="round" stroke-linejoin="round" stroke-miterlimit="10" stroke-width="20"/><path fill="none" stroke="rgb(85,85,85)" paint-order="fill stroke markers" d=" M 1358.3816075567934 92.82563461690937 L 1329.6141175786715 157.07757893744395" stroke-opacity="1" stroke-linejoin="round" stroke-miterlimit="10" stroke-width="1.25"/><path fill="rgb(255,255,255)" stroke="rgb(255,255,255)" paint-order="fill stroke markers" d=" M 1335.9965990312858 154.96697089609302 A 5.4375 5.4375 0 1 1 1335.996596312536 154.96153339699927 Z" fill-opacity="1" stroke-opacity="1" stroke-miterlimit="10"/><path fill="none" stroke="rgb(85,85,85)" paint-order="fill stroke markers" d=" M 1335.9965990312858 154.96697089609302 A 5.4375 5.4375 0 1 1 1335.996596312536 154.96153339699927 Z" stroke-opacity="1" stroke-miterlimit="10"/><path fill="none" stroke="rgb(0,0,0)" paint-order="fill stroke markers" d=" M 1358.3816075567934 92.82563461690937 L 1329.6141175786715 157.07757893744395" stroke-opacity="0" stroke-linecap="round" stroke-miterlimit="10" stroke-width="20"/><path fill="none" stroke="rgb(85,85,85)" paint-order="fill stroke markers" d=" M 1246.0425377654674 139.71787276106798 L 1314.3141686269055 167.51903768058224" stroke-opacity="1" stroke-linejoin="round" stroke-miterlimit="10" stroke-width="1.25"/><path fill="none" stroke="rgb(0,0,0)" paint-order="fill stroke markers" d=" M 1246.0425377654674 139.71787276106798 L 1314.3141686269055 167.51903768058224" stroke-opacity="0" stroke-linecap="round" stroke-linejoin="round" stroke-miterlimit="10" stroke-width="20"/><path fill="none" stroke="rgb(85,85,85)" paint-order="fill stroke markers" d=" M 1528.2080125709106 255.18474848076812 L 1473.5690448612559 301.54403705618716" stroke-opacity="1" stroke-linejoin="round" stroke-miterlimit="10" stroke-width="1.25"/><path fill="rgb(255,255,255)" stroke="rgb(255,255,255)" paint-order="fill stroke markers" d=" M 1480.7698639162427 300.0479213653663 A 5.4375 5.4375 0 1 1 1480.769861197493 300.0424838662725 Z" fill-opacity="1" stroke-opacity="1" stroke-miterlimit="10"/><path fill="none" stroke="rgb(85,85,85)" paint-order="fill stroke markers" d=" M 1480.7698639162427 300.0479213653663 A 5.4375 5.4375 0 1 1 1480.769861197493 300.0424838662725 Z" stroke-opacity="1" stroke-miterlimit="10"/><path fill="none" stroke="rgb(0,0,0)" paint-order="fill stroke markers" d=" M 1528.2080125709106 255.18474848076812 L 1473.5690448612559 301.54403705618716" stroke-opacity="0" stroke-linecap="round" stroke-miterlimit="10" stroke-width="20"/><path fill="none" stroke="rgb(85,85,85)" paint-order="fill stroke markers" d=" M 1423.4023414499693 250.88039963689346 L 1463.59689555915 299.3800634370314" stroke-opacity="1" stroke-linejoin="round" stroke-miterlimit="10" stroke-width="1.25"/><path fill="none" stroke="rgb(0,0,0)" paint-order="fill stroke markers" d=" M 1423.4023414499693 250.88039963689346 L 1463.59689555915 299.3800634370314" stroke-opacity="0" stroke-linecap="round" stroke-linejoin="round" stroke-miterlimit="10" stroke-width="20"/><path fill="none" stroke="rgb(85,85,85)" paint-order="fill stroke markers" d=" M 1318.0167403671824 277.85455003733756 L 1463.59689555915 299.3800634370314" stroke-opacity="1" stroke-linejoin="round" stroke-miterlimit="10" stroke-width="1.25"/><path fill="none" stroke="rgb(0,0,0)" paint-order="fill stroke markers" d=" M 1318.0167403671824 277.85455003733756 L 1463.59689555915 299.3800634370314" stroke-opacity="0" stroke-linecap="round" stroke-linejoin="round" stroke-miterlimit="10" stroke-width="20"/><path fill="none" stroke="rgb(85,85,85)" paint-order="fill stroke markers" d=" M 1463.59689555915 320.6300634370314 L 1486.7073155138694 415.05122285549686" stroke-opacity="1" stroke-linejoin="round" stroke-miterlimit="10" stroke-width="1.25"/><path fill="rgb(85,85,85)" stroke="none" paint-order="stroke fill markers" d=" M 1479.521750771628 408.8242619732515 L 1487.378765925345 418.1032351990055 L 1490.087735413718 406.2502391405794 Z" fill-opacity="1"/><path fill="none" stroke="rgb(0,0,0)" paint-order="fill stroke markers" d=" M 1463.59689555915 320.6300634370314 L 1486.7073155138694 415.05122285549686" stroke-opacity="0" stroke-linecap="round" stroke-linejoin="round" stroke-miterlimit="10" stroke-width="20"/><path fill="none" stroke="rgb(85,85,85)" paint-order="fill stroke markers" d=" M 1463.59689555915 320.6300634370314 L 1394.6860263198707 366.5789884167154" stroke-opacity="1" stroke-linejoin="round" stroke-miterlimit="10" stroke-width="1.25"/><path fill="rgb(85,85,85)" stroke="none" paint-order="stroke fill markers" d=" M 1398.2460301360254 357.97285640471506 L 1392.2707165119975 368.5618912211895 L 1404.3271325395938 366.9887212305271 Z" fill-opacity="1"/><path fill="none" stroke="rgb(0,0,0)" paint-order="fill stroke markers" d=" M 1463.59689555915 320.6300634370314 L 1394.6860263198707 366.5789884167154" stroke-opacity="0" stroke-linecap="round" stroke-linejoin="round" stroke-miterlimit="10" stroke-width="20"/><path fill="none" stroke="rgb(85,85,85)" paint-order="fill stroke markers" d=" M 1463.59689555915 320.6300634370314 L 1503.3776100346274 363.2041113179556" stroke-opacity="1" stroke-linejoin="round" stroke-miterlimit="10" stroke-width="1.25"/><path fill="rgb(85,85,85)" stroke="none" paint-order="stroke fill markers" d=" M 1493.8861407596748 361.3805183914386 L 1505.2490381853193 365.7067862222925 L 1501.8923139946157 354.02070758326454 Z" fill-opacity="1"/><path fill="none" stroke="rgb(0,0,0)" paint-order="fill stroke markers" d=" M 1463.59689555915 320.6300634370314 L 1503.3776100346274 363.2041113179556" stroke-opacity="0" stroke-linecap="round" stroke-linejoin="round" stroke-miterlimit="10" stroke-width="20"/><path fill="none" stroke="rgb(85,85,85)" paint-order="fill stroke markers" d=" M 1489.7933358394446 448.9598342045733 L 1483.1994962558074 547.4289394347268" stroke-opacity="1" stroke-linejoin="round" stroke-miterlimit="10" stroke-width="1.25"/><path fill="none" stroke="rgb(0,0,0)" paint-order="fill stroke markers" d=" M 1489.7933358394446 448.9598342045733 L 1483.1994962558074 547.4289394347268" stroke-opacity="0" stroke-linecap="round" stroke-linejoin="round" stroke-miterlimit="10" stroke-width="20"/><path fill="none" stroke="rgb(85,85,85)" paint-order="fill stroke markers" d=" M 1483.1994962558074 568.6789394347268 L 1401.4441872910136 687.3977699702269" stroke-opacity="1" stroke-linejoin="round" stroke-miterlimit="10" stroke-width="1.25"/><path fill="rgb(85,85,85)" stroke="none" paint-order="stroke fill markers" d=" M 1401.4492242994233 677.9965963366869 L 1399.7745181057555 690.0393281868483 L 1410.4135273020854 684.1534540316858 Z" fill-opacity="1"/><path fill="none" stroke="rgb(0,0,0)" paint-order="fill stroke markers" d=" M 1483.1994962558074 568.6789394347268 L 1401.4441872910136 687.3977699702269" stroke-opacity="0" stroke-linecap="round" stroke-linejoin="round" stroke-miterlimit="10" stroke-width="20"/><path fill="none" stroke="rgb(85,85,85)" paint-order="fill stroke markers" d=" M 1579.1775455288364 551.092348670385 L 1493.9055938604429 557.2773923932824" stroke-opacity="1" stroke-linejoin="round" stroke-miterlimit="10" stroke-width="1.25"/><path fill="rgb(255,255,255)" stroke="rgb(255,255,255)" paint-order="fill stroke markers" d=" M 1501.6495346593017 557.1100989643634 A 5.4375 5.4375 0 1 1 1501.649531940552 557.1046614652696 Z" fill-opacity="1" stroke-opacity="1" stroke-miterlimit="10"/><path fill="none" stroke="rgb(85,85,85)" paint-order="fill stroke markers" d=" M 1501.6495346593017 557.1100989643634 A 5.4375 5.4375 0 1 1 1501.649531940552 557.1046614652696 Z" stroke-opacity="1" stroke-miterlimit="10"/><path fill="none" stroke="rgb(0,0,0)" paint-order="fill stroke markers" d=" M 1579.1775455288364 551.092348670385 L 1493.9055938604429 557.2773923932824" stroke-opacity="0" stroke-linecap="round" stroke-miterlimit="10" stroke-width="20"/><path fill="none" stroke="rgb(85,85,85)" paint-order="fill stroke markers" d=" M 1483.1994962558074 568.6789394347268 L 1490.4498839613664 615.241056579593" stroke-opacity="1" stroke-linejoin="round" stroke-miterlimit="10" stroke-width="1.25"/><path fill="rgb(85,85,85)" stroke="none" paint-order="stroke fill markers" d=" M 1483.8224012348742 608.4143005671232 L 1490.8429362800107 618.3412396185131 L 1494.5721664940409 606.76864815157 Z" fill-opacity="1"/><path fill="none" stroke="rgb(0,0,0)" paint-order="fill stroke markers" d=" M 1483.1994962558074 568.6789394347268 L 1490.4498839613664 615.241056579593" stroke-opacity="0" stroke-linecap="round" stroke-linejoin="round" stroke-miterlimit="10" stroke-width="20"/><path fill="none" stroke="rgb(85,85,85)" paint-order="fill stroke markers" d=" M 1483.1994962558074 568.6789394347268 L 1363.8946889069769 620.6866539330921" stroke-opacity="1" stroke-linejoin="round" stroke-miterlimit="10" stroke-width="1.25"/><path fill="rgb(85,85,85)" stroke="none" paint-order="stroke fill markers" d=" M 1368.9004482067296 612.7894613863575 L 1361.1277984183732 622.139217881452 L 1373.2711934874628 622.7474838150804 Z" fill-opacity="1"/><path fill="none" stroke="rgb(0,0,0)" paint-order="fill stroke markers" d=" M 1483.1994962558074 568.6789394347268 L 1363.8946889069769 620.6866539330921" stroke-opacity="0" stroke-linecap="round" stroke-linejoin="round" stroke-miterlimit="10" stroke-width="20"/><path fill="none" stroke="rgb(85,85,85)" paint-order="fill stroke markers" d=" M 1386.1962553047465 521.4920744921255 L 1483.1994962558074 547.4289394347268" stroke-opacity="1" stroke-linejoin="round" stroke-miterlimit="10" stroke-width="1.25"/><path fill="none" stroke="rgb(0,0,0)" paint-order="fill stroke markers" d=" M 1386.1962553047465 521.4920744921255 L 1483.1994962558074 547.4289394347268" stroke-opacity="0" stroke-linecap="round" stroke-linejoin="round" stroke-miterlimit="10" stroke-width="20"/><path fill="none" stroke="rgb(85,85,85)" paint-order="fill stroke markers" d=" M 1421.3491684857518 479.50222086370627 L 1483.1994962558074 547.4289394347268" stroke-opacity="1" stroke-linejoin="round" stroke-miterlimit="10" stroke-width="1.25"/><path fill="none" stroke="rgb(0,0,0)" paint-order="fill stroke markers" d=" M 1421.3491684857518 479.50222086370627 L 1483.1994962558074 547.4289394347268" stroke-opacity="0" stroke-linecap="round" stroke-linejoin="round" stroke-miterlimit="10" stroke-width="20"/><path fill="none" stroke="rgb(85,85,85)" paint-order="fill stroke markers" d=" M 1375.08681605873 712.6385759235297 L 1265.6042610553243 775.7232103866575" stroke-opacity="1" stroke-linejoin="round" stroke-miterlimit="10" stroke-width="1.25"/><path fill="none" stroke="rgb(0,0,0)" paint-order="fill stroke markers" d=" M 1375.08681605873 712.6385759235297 L 1265.6042610553243 775.7232103866575" stroke-opacity="0" stroke-linecap="round" stroke-linejoin="round" stroke-miterlimit="10" stroke-width="20"/><path fill="none" stroke="rgb(85,85,85)" paint-order="fill stroke markers" d=" M 1271.9971227715814 709.5808433061245 L 1265.6042610553243 775.7232103866575" stroke-opacity="1" stroke-linejoin="round" stroke-miterlimit="10" stroke-width="1.25"/><path fill="none" stroke="rgb(0,0,0)" paint-order="fill stroke markers" d=" M 1271.9971227715814 709.5808433061245 L 1265.6042610553243 775.7232103866575" stroke-opacity="0" stroke-linecap="round" stroke-linejoin="round" stroke-miterlimit="10" stroke-width="20"/><path fill="none" stroke="rgb(85,85,85)" paint-order="fill stroke markers" d=" M 1238.6890603893341 685.3966714564015 L 1265.6042610553243 775.7232103866575" stroke-opacity="1" stroke-linejoin="round" stroke-miterlimit="10" stroke-width="1.25"/><path fill="none" stroke="rgb(0,0,0)" paint-order="fill stroke markers" d=" M 1238.6890603893341 685.3966714564015 L 1265.6042610553243 775.7232103866575" stroke-opacity="0" stroke-linecap="round" stroke-linejoin="round" stroke-miterlimit="10" stroke-width="20"/><path fill="none" stroke="rgb(85,85,85)" paint-order="fill stroke markers" d=" M 1244.3542610553243 775.7232103866575 L 1099.0761451912435 794.3783725193235" stroke-opacity="1" stroke-linejoin="round" stroke-miterlimit="10" stroke-width="1.25"/><path fill="rgb(85,85,85)" stroke="none" paint-order="stroke fill markers" d=" M 1106.0689823963871 787.9740522575925 L 1095.9732799648605 794.7496572980348 L 1107.4511854561304 798.7608562189906 Z" fill-opacity="1"/><path fill="none" stroke="rgb(0,0,0)" paint-order="fill stroke markers" d=" M 1244.3542610553243 775.7232103866575 L 1099.0761451912435 794.3783725193235" stroke-opacity="0" stroke-linecap="round" stroke-linejoin="round" stroke-miterlimit="10" stroke-width="20"/><path fill="none" stroke="rgb(85,85,85)" paint-order="fill stroke markers" d=" M 1244.3542610553243 775.7232103866575 L 1163.1599155054737 755.1743149445691" stroke-opacity="1" stroke-linejoin="round" stroke-miterlimit="10" stroke-width="1.25"/><path fill="rgb(85,85,85)" stroke="none" paint-order="stroke fill markers" d=" M 1171.983200578272 751.8712433560212 L 1160.1103513605792 754.4918315922635 L 1169.3305314801887 762.4177580246724 Z" fill-opacity="1"/><path fill="none" stroke="rgb(0,0,0)" paint-order="fill stroke markers" d=" M 1244.3542610553243 775.7232103866575 L 1163.1599155054737 755.1743149445691" stroke-opacity="0" stroke-linecap="round" stroke-linejoin="round" stroke-miterlimit="10" stroke-width="20"/><path fill="none" stroke="rgb(85,85,85)" paint-order="fill stroke markers" d=" M 1244.3542610553243 775.7232103866575 L 1134.3873971893624 725.0329114730124" stroke-opacity="1" stroke-linejoin="round" stroke-miterlimit="10" stroke-width="1.25"/><path fill="rgb(85,85,85)" stroke="none" paint-order="stroke fill markers" d=" M 1143.6585652004944 723.4209925190733 L 1131.5065590279605 723.8219628829349 L 1139.1185390225703 733.3029856026451 Z" fill-opacity="1"/><path fill="none" stroke="rgb(0,0,0)" paint-order="fill stroke markers" d=" M 1244.3542610553243 775.7232103866575 L 1134.3873971893624 725.0329114730124" stroke-opacity="0" stroke-linecap="round" stroke-linejoin="round" stroke-miterlimit="10" stroke-width="20"/><path fill="none" stroke="rgb(85,85,85)" paint-order="fill stroke markers" d=" M 1322.9939519980808 787.9488967458302 L 1265.644253270459 777.6402498973566" stroke-opacity="1" stroke-linejoin="round" stroke-miterlimit="10" stroke-width="1.25"/><path fill="rgb(255,255,255)" stroke="rgb(255,255,255)" paint-order="fill stroke markers" d=" M 1273.3577760810874 778.0493665255934 A 5.4375 5.4375 0 1 1 1273.3577733623376 778.0439290264997 Z" fill-opacity="1" stroke-opacity="1" stroke-miterlimit="10"/><path fill="none" stroke="rgb(85,85,85)" paint-order="fill stroke markers" d=" M 1273.3577760810874 778.0493665255934 A 5.4375 5.4375 0 1 1 1273.3577733623376 778.0439290264997 Z" stroke-opacity="1" stroke-miterlimit="10"/><path fill="none" stroke="rgb(0,0,0)" paint-order="fill stroke markers" d=" M 1322.9939519980808 787.9488967458302 L 1265.644253270459 777.6402498973566" stroke-opacity="0" stroke-linecap="round" stroke-miterlimit="10" stroke-width="20"/><path fill="none" stroke="rgb(85,85,85)" paint-order="fill stroke markers" d=" M 892.1689143759457 713.3255939461227 L 833.5870498665843 614.3213294396749" stroke-opacity="1" stroke-linejoin="round" stroke-miterlimit="10" stroke-width="1.25"/><path fill="rgb(85,85,85)" stroke="none" paint-order="stroke fill markers" d=" M 842.0337732835412 618.3200409866614 L 831.7966493255362 611.760061999009 L 832.6909405102173 623.8857485580045 Z" fill-opacity="1"/><path fill="none" stroke="rgb(0,0,0)" paint-order="fill stroke markers" d=" M 892.1689143759457 713.3255939461227 L 833.5870498665843 614.3213294396749" stroke-opacity="0" stroke-linecap="round" stroke-linejoin="round" stroke-miterlimit="10" stroke-width="20"/><path fill="none" stroke="rgb(85,85,85)" paint-order="fill stroke markers" d=" M 1066.3111579585877 789.974301875486 L 913.4189143759457 713.3255939461227" stroke-opacity="1" stroke-linejoin="round" stroke-miterlimit="10" stroke-width="1.25"/><path fill="none" stroke="rgb(0,0,0)" paint-order="fill stroke markers" d=" M 1066.3111579585877 789.974301875486 L 913.4189143759457 713.3255939461227" stroke-opacity="0" stroke-linecap="round" stroke-linejoin="round" stroke-miterlimit="10" stroke-width="20"/><path fill="none" stroke="rgb(85,85,85)" paint-order="fill stroke markers" d=" M 848.605386007064 745.5809041134628 L 892.5193434891077 719.4414542724128" stroke-opacity="1" stroke-linejoin="round" stroke-miterlimit="10" stroke-width="1.25"/><path fill="rgb(255,255,255)" stroke="rgb(255,255,255)" paint-order="fill stroke markers" d=" M 895.9697324614187 720.624267027517 A 5.4375 5.4375 0 1 1 895.969729742669 720.6188295284232 Z" fill-opacity="1" stroke-opacity="1" stroke-miterlimit="10"/><path fill="none" stroke="rgb(85,85,85)" paint-order="fill stroke markers" d=" M 895.9697324614187 720.624267027517 A 5.4375 5.4375 0 1 1 895.969729742669 720.6188295284232 Z" stroke-opacity="1" stroke-miterlimit="10"/><path fill="none" stroke="rgb(0,0,0)" paint-order="fill stroke markers" d=" M 848.605386007064 745.5809041134628 L 892.5193434891077 719.4414542724128" stroke-opacity="0" stroke-linecap="round" stroke-miterlimit="10" stroke-width="20"/><path fill="none" stroke="rgb(85,85,85)" paint-order="fill stroke markers" d=" M 892.1689143759457 713.3255939461227 L 902.7939143759459 617.7037247956795" stroke-opacity="1" stroke-linejoin="round" stroke-miterlimit="10" stroke-width="1.25"/><path fill="rgb(85,85,85)" stroke="none" paint-order="stroke fill markers" d=" M 907.055668498115 625.9659756953556 L 902.7939143759459 614.5787247956795 L 896.2411661295064 624.8204786332204 Z" fill-opacity="1"/><path fill="none" stroke="rgb(0,0,0)" paint-order="fill stroke markers" d=" M 892.1689143759457 713.3255939461227 L 902.7939143759459 617.7037247956795" stroke-opacity="0" stroke-linecap="round" stroke-linejoin="round" stroke-miterlimit="10" stroke-width="20"/><path fill="none" stroke="rgb(85,85,85)" paint-order="fill stroke markers" d=" M 992.1543570039828 687.6582327657292 L 913.4189143759457 713.3255939461227" stroke-opacity="1" stroke-linejoin="round" stroke-miterlimit="10" stroke-width="1.25"/><path fill="none" stroke="rgb(0,0,0)" paint-order="fill stroke markers" d=" M 992.1543570039828 687.6582327657292 L 913.4189143759457 713.3255939461227" stroke-opacity="0" stroke-linecap="round" stroke-linejoin="round" stroke-miterlimit="10" stroke-width="20"/><path fill="none" stroke="rgb(85,85,85)" paint-order="fill stroke markers" d=" M 795.0844842051404 440.6446607470492 L 799.8253452443145 350.15665834449203" stroke-opacity="1" stroke-linejoin="round" stroke-miterlimit="10" stroke-width="1.25"/><path fill="rgb(85,85,85)" stroke="none" paint-order="stroke fill markers" d=" M 804.8357841200592 358.1783713230216 L 799.9717055795243 347.0350876417404 L 793.9755257588203 357.612320682937 Z" fill-opacity="1"/><path fill="none" stroke="rgb(0,0,0)" paint-order="fill stroke markers" d=" M 795.0844842051404 440.6446607470492 L 799.8253452443145 350.15665834449203" stroke-opacity="0" stroke-linecap="round" stroke-linejoin="round" stroke-miterlimit="10" stroke-width="20"/><path fill="none" stroke="rgb(85,85,85)" paint-order="fill stroke markers" d=" M 819.958167437261 583.5976555419318 L 795.0844842051404 461.8946607470492" stroke-opacity="1" stroke-linejoin="round" stroke-miterlimit="10" stroke-width="1.25"/><path fill="none" stroke="rgb(0,0,0)" paint-order="fill stroke markers" d=" M 819.958167437261 583.5976555419318 L 795.0844842051404 461.8946607470492" stroke-opacity="0" stroke-linecap="round" stroke-linejoin="round" stroke-miterlimit="10" stroke-width="20"/><path fill="none" stroke="rgb(85,85,85)" paint-order="fill stroke markers" d=" M 699.1231435920286 469.7885159530883 L 784.4268129545012 453.326404321734" stroke-opacity="1" stroke-linejoin="round" stroke-miterlimit="10" stroke-width="1.25"/><path fill="rgb(255,255,255)" stroke="rgb(255,255,255)" paint-order="fill stroke markers" d=" M 787.5937076575997 453.7645913088553 A 5.4375 5.4375 0 1 1 787.5937049388499 453.75915380976153 Z" fill-opacity="1" stroke-opacity="1" stroke-miterlimit="10"/><path fill="none" stroke="rgb(85,85,85)" paint-order="fill stroke markers" d=" M 787.5937076575997 453.7645913088553 A 5.4375 5.4375 0 1 1 787.5937049388499 453.75915380976153 Z" stroke-opacity="1" stroke-miterlimit="10"/><path fill="none" stroke="rgb(0,0,0)" paint-order="fill stroke markers" d=" M 699.1231435920286 469.7885159530883 L 784.4268129545012 453.326404321734" stroke-opacity="0" stroke-linecap="round" stroke-miterlimit="10" stroke-width="20"/><path fill="none" stroke="rgb(85,85,85)" paint-order="fill stroke markers" d=" M 795.0844842051404 440.6446607470492 L 730.0833597528908 412.0909008032276" stroke-opacity="1" stroke-linejoin="round" stroke-miterlimit="10" stroke-width="1.25"/><path fill="rgb(85,85,85)" stroke="none" paint-order="stroke fill markers" d=" M 739.5549334967963 409.9696200721156 L 727.4069347862231 410.4777131520854 L 735.1022084765428 419.89125627256203 Z" fill-opacity="1"/><path fill="none" stroke="rgb(0,0,0)" paint-order="fill stroke markers" d=" M 795.0844842051404 440.6446607470492 L 730.0833597528908 412.0909008032276" stroke-opacity="0" stroke-linecap="round" stroke-linejoin="round" stroke-miterlimit="10" stroke-width="20"/><path fill="none" stroke="rgb(85,85,85)" paint-order="fill stroke markers" d=" M 847.3435977061613 225.29339449146474 L 955.5216856363984 146.65428980101882" stroke-opacity="1" stroke-linejoin="round" stroke-miterlimit="10" stroke-width="1.25"/><path fill="rgb(85,85,85)" stroke="none" paint-order="stroke fill markers" d=" M 952.3552847255971 155.4696163364737 L 957.9320391885111 144.66536527911816 L 945.9425856648783 146.6865123432003 Z" fill-opacity="1"/><path fill="none" stroke="rgb(0,0,0)" paint-order="fill stroke markers" d=" M 847.3435977061613 225.29339449146474 L 955.5216856363984 146.65428980101882" stroke-opacity="0" stroke-linecap="round" stroke-linejoin="round" stroke-miterlimit="10" stroke-width="20"/><path fill="none" stroke="rgb(85,85,85)" paint-order="fill stroke markers" d=" M 807.5598623211663 317.38689865426534 L 847.3435977061613 246.54339449146474" stroke-opacity="1" stroke-linejoin="round" stroke-miterlimit="10" stroke-width="1.25"/><path fill="none" stroke="rgb(0,0,0)" paint-order="fill stroke markers" d=" M 807.5598623211663 317.38689865426534 L 847.3435977061613 246.54339449146474" stroke-opacity="0" stroke-linecap="round" stroke-linejoin="round" stroke-miterlimit="10" stroke-width="20"/><path fill="none" stroke="rgb(85,85,85)" paint-order="fill stroke markers" d=" M 762.373812842552 207.68682247285173 L 836.7887180462725 232.41149088161973" stroke-opacity="1" stroke-linejoin="round" stroke-miterlimit="10" stroke-width="1.25"/><path fill="rgb(255,255,255)" stroke="rgb(255,255,255)" paint-order="fill stroke markers" d=" M 840.0316785265261 231.68234580259124 A 5.4375 5.4375 0 1 1 840.0316758077763 231.6769083034975 Z" fill-opacity="1" stroke-opacity="1" stroke-miterlimit="10"/><path fill="none" stroke="rgb(85,85,85)" paint-order="fill stroke markers" d=" M 840.0316785265261 231.68234580259124 A 5.4375 5.4375 0 1 1 840.0316758077763 231.6769083034975 Z" stroke-opacity="1" stroke-miterlimit="10"/><path fill="none" stroke="rgb(0,0,0)" paint-order="fill stroke markers" d=" M 762.373812842552 207.68682247285173 L 836.7887180462725 232.41149088161973" stroke-opacity="0" stroke-linecap="round" stroke-miterlimit="10" stroke-width="20"/><path fill="none" stroke="rgb(85,85,85)" paint-order="fill stroke markers" d=" M 847.3435977061613 225.29339449146474 L 887.3877007898712 237.3852448923631" stroke-opacity="1" stroke-linejoin="round" stroke-miterlimit="10" stroke-width="1.25"/><path fill="rgb(85,85,85)" stroke="none" paint-order="stroke fill markers" d=" M 878.5848969170091 239.86807518239723 L 890.5106063025202 237.49963964341097 L 881.4604322400245 229.38013345839386 Z" fill-opacity="1"/><path fill="none" stroke="rgb(0,0,0)" paint-order="fill stroke markers" d=" M 847.3435977061613 225.29339449146474 L 887.3877007898712 237.3852448923631" stroke-opacity="0" stroke-linecap="round" stroke-linejoin="round" stroke-miterlimit="10" stroke-width="20"/><path fill="none" stroke="rgb(85,85,85)" paint-order="fill stroke markers" d=" M 871.321964267288 309.82105017969127 L 847.3435977061613 246.54339449146474" stroke-opacity="1" stroke-linejoin="round" stroke-miterlimit="10" stroke-width="1.25"/><path fill="none" stroke="rgb(0,0,0)" paint-order="fill stroke markers" d=" M 871.321964267288 309.82105017969127 L 847.3435977061613 246.54339449146474" stroke-opacity="0" stroke-linecap="round" stroke-linejoin="round" stroke-miterlimit="10" stroke-width="20"/><path fill="rgb(255,255,255)" stroke="#555555" paint-order="fill stroke markers" d=" M 1099.4595942429949 7.35800804131771 L 1135.4580978504964 7.35800804131771 L 1135.4580978504964 7.35800804131771 A 8 8 0 0 1 1143.4580978504964 15.35800804131771 L 1143.4580978504964 37.54374919113204 L 1143.4580978504964 37.54374919113204 A 8 8 0 0 1 1135.4580978504964 45.54374919113204 L 1063.4610906354933 45.54374919113204 L 1063.4610906354933 45.54374919113204 A 8 8 0 0 1 1055.4610906354933 37.54374919113204 L 1055.4610906354933 15.35800804131771 L 1055.4610906354933 15.358008041317712 A 8 8 0 0 1 1063.4610906354933 7.35800804131771 L 1099.4595942429949 7.35800804131771 Z" fill-opacity="1" stroke-miterlimit="10" stroke-width="1.25"/><path fill="rgb(255,255,255)" stroke="rgb(85,85,85)" paint-order="fill stroke markers" d="" fill-opacity="1" stroke-opacity="1" stroke-miterlimit="10" stroke-width="1.25"/><text fill="rgb(0,0,0)" stroke="none" font-family="Helvetica" font-size="11px" font-style="normal" font-weight="normal" text-decoration="normal" x="1099.4595942429949" y="31.950878616224873" text-anchor="middle" dominant-baseline="text-after-edge" fill-opacity="1">citratsintazo</text><path fill="rgb(255,255,255)" stroke="#555555" paint-order="fill stroke markers" d=" M 1231.30569497655 119.5249843918906 L 1231.30569497655 119.5249843918906 L 1231.30569497655 119.5249843918906 A 15 15 0 0 1 1246.30569497655 134.5249843918906 L 1246.30569497655 134.5249843918906 L 1246.30569497655 134.5249843918906 A 15 15 0 0 1 1231.30569497655 149.5249843918906 L 1231.30569497655 149.5249843918906 L 1231.30569497655 149.5249843918906 A 15 15 0 0 1 1216.30569497655 134.5249843918906 L 1216.30569497655 134.5249843918906 L 1216.30569497655 134.5249843918906 A 15 15 0 0 1 1231.30569497655 119.5249843918906 L 1231.30569497655 119.5249843918906 Z" fill-opacity="1" stroke-miterlimit="10" stroke-width="1.25"/><path fill="rgb(255,255,255)" stroke="rgb(85,85,85)" paint-order="fill stroke markers" d="" fill-opacity="1" stroke-opacity="1" stroke-miterlimit="10" stroke-width="1.25"/><text fill="rgb(0,0,0)" stroke="none" font-family="Helvetica" font-size="11px" font-style="normal" font-weight="normal" text-decoration="normal" x="1231.30569497655" y="140.0249843918906" text-anchor="middle" dominant-baseline="text-after-edge" fill-opacity="1">citrato</text><path fill="rgb(255,255,255)" stroke="#555555" paint-order="fill stroke markers" d=" M 969.9838069490745 119.72074266961485 L 969.9838069490745 119.72074266961485 L 969.9838069490745 119.72074266961485 A 15 15 0 0 1 984.9838069490745 134.72074266961485 L 984.9838069490745 134.72074266961485 L 984.9838069490745 134.72074266961485 A 15 15 0 0 1 969.9838069490745 149.72074266961485 L 969.9838069490745 149.72074266961485 L 969.9838069490745 149.72074266961485 A 15 15 0 0 1 954.9838069490745 134.72074266961485 L 954.9838069490745 134.72074266961485 L 954.9838069490745 134.72074266961485 A 15 15 0 0 1 969.9838069490745 119.72074266961485 L 969.9838069490745 119.72074266961485 Z" fill-opacity="1" stroke-miterlimit="10" stroke-width="1.25"/><path fill="rgb(255,255,255)" stroke="rgb(85,85,85)" paint-order="fill stroke markers" d="" fill-opacity="1" stroke-opacity="1" stroke-miterlimit="10" stroke-width="1.25"/><text fill="rgb(0,0,0)" stroke="none" font-family="Helvetica" font-size="11px" font-style="normal" font-weight="normal" text-decoration="normal" x="969.9838069490745" y="140.22074266961485" text-anchor="middle" dominant-baseline="text-after-edge" fill-opacity="1">okzalacetato</text><path fill="rgb(255,255,255)" stroke="#555555" paint-order="fill stroke markers" d=" M 941.8530537050372 14.571483091324396 L 941.8530537050372 14.571483091324396 L 941.8530537050372 14.571483091324396 A 15 15 0 0 1 956.8530537050372 29.571483091324396 L 956.8530537050372 29.571483091324396 L 956.8530537050372 29.571483091324396 A 15 15 0 0 1 941.8530537050372 44.571483091324396 L 941.8530537050372 44.571483091324396 L 941.8530537050372 44.571483091324396 A 15 15 0 0 1 926.8530537050372 29.5714830913244 L 926.8530537050372 29.571483091324396 L 926.8530537050372 29.5714830913244 A 15 15 0 0 1 941.8530537050372 14.571483091324396 L 941.8530537050372 14.571483091324396 Z" fill-opacity="1" stroke-miterlimit="10" stroke-width="1.25"/><path fill="rgb(255,255,255)" stroke="rgb(85,85,85)" paint-order="fill stroke markers" d="" fill-opacity="1" stroke-opacity="1" stroke-miterlimit="10" stroke-width="1.25"/><text fill="rgb(0,0,0)" stroke="none" font-family="Helvetica" font-size="11px" font-style="normal" font-weight="normal" text-decoration="normal" x="941.8530537050372" y="35.071483091324396" text-anchor="middle" dominant-baseline="text-after-edge" fill-opacity="1">acetil-CoA</text><path fill="rgb(255,255,255)" stroke="#555555" paint-order="fill stroke markers" d=" M 946.5078648557235 194.61002625050486 L 946.5078648557235 194.61002625050486 L 946.5078648557235 194.61002625050486 A 15 15 0 0 1 961.5078648557235 209.61002625050486 L 961.5078648557235 209.61002625050486 L 961.5078648557235 209.61002625050486 A 15 15 0 0 1 946.5078648557235 224.61002625050486 L 946.5078648557235 224.61002625050486 L 946.5078648557235 224.61002625050486 A 15 15 0 0 1 931.5078648557235 209.61002625050486 L 931.5078648557235 209.61002625050486 L 931.5078648557235 209.61002625050486 A 15 15 0 0 1 946.5078648557235 194.61002625050486 L 946.5078648557235 194.61002625050486 Z" fill-opacity="1" stroke-miterlimit="10" stroke-width="1.25"/><path fill="rgb(255,255,255)" stroke="rgb(85,85,85)" paint-order="fill stroke markers" d="" fill-opacity="1" stroke-opacity="1" stroke-miterlimit="10" stroke-width="1.25"/><text fill="rgb(0,0,0)" stroke="none" font-family="Helvetica" font-size="11px" font-style="normal" font-weight="normal" text-decoration="normal" x="946.5078648557235" y="215.11002625050486" text-anchor="middle" dominant-baseline="text-after-edge" fill-opacity="1">H2O</text><path fill="rgb(255,255,255)" stroke="rgb(85,85,85)" paint-order="fill stroke markers" d=" M 1083.2408311359823 110.65612868045528 L 1086.2765454216965 110.65612868045528 L 1086.2765454216965 103.17309296616958 L 1101.455116850268 103.17309296616958 L 1101.455116850268 110.65612868045528 L 1104.4908311359823 110.65612868045528 L 1104.4908311359823 110.86862868045529 L 1101.455116850268 110.86862868045529 L 1101.455116850268 118.351664394741 L 1086.2765454216965 118.351664394741 L 1086.2765454216965 110.86862868045529 L 1083.2408311359823 110.86862868045529 Z" fill-opacity="1" stroke-opacity="1" stroke-miterlimit="10" stroke-width="1.25"/><path fill="rgb(255,255,255)" stroke="#555555" paint-order="fill stroke markers" d=" M 1157.019611128132 188.54175923902412 L 1157.019611128132 188.54175923902412 L 1157.019611128132 188.54175923902412 A 15 15 0 0 1 1172.019611128132 203.54175923902412 L 1172.019611128132 203.54175923902412 L 1172.019611128132 203.54175923902412 A 15 15 0 0 1 1157.019611128132 218.54175923902412 L 1157.019611128132 218.54175923902412 L 1157.019611128132 218.54175923902412 A 15 15 0 0 1 1142.019611128132 203.54175923902412 L 1142.019611128132 203.54175923902412 L 1142.019611128132 203.54175923902412 A 15 15 0 0 1 1157.019611128132 188.54175923902412 L 1157.019611128132 188.54175923902412 Z" fill-opacity="1" stroke-miterlimit="10" stroke-width="1.25"/><path fill="rgb(255,255,255)" stroke="rgb(85,85,85)" paint-order="fill stroke markers" d="" fill-opacity="1" stroke-opacity="1" stroke-miterlimit="10" stroke-width="1.25"/><text fill="rgb(0,0,0)" stroke="none" font-family="Helvetica" font-size="11px" font-style="normal" font-weight="normal" text-decoration="normal" x="1157.019611128132" y="209.04175923902412" text-anchor="middle" dominant-baseline="text-after-edge" fill-opacity="1">CoA-SH</text><path fill="rgb(255,255,255)" stroke="rgb(85,85,85)" paint-order="fill stroke markers" d=" M 1314.3141686269055 167.41278768058226 L 1317.3498829126197 167.41278768058226 L 1317.3498829126197 159.92975196629652 L 1332.5284543411913 159.92975196629652 L 1332.5284543411913 167.41278768058226 L 1335.5641686269055 167.41278768058226 L 1335.5641686269055 167.62528768058223 L 1332.5284543411913 167.62528768058223 L 1332.5284543411913 175.10832339486797 L 1317.3498829126197 175.10832339486797 L 1317.3498829126197 167.62528768058223 L 1314.3141686269055 167.62528768058223 Z" fill-opacity="1" stroke-opacity="1" stroke-miterlimit="10" stroke-width="1.25"/><path fill="rgb(255,255,255)" stroke="#555555" paint-order="fill stroke markers" d=" M 1414.617774367104 222.95863481289837 L 1414.617774367104 222.95863481289837 L 1414.617774367104 222.95863481289837 A 15 15 0 0 1 1429.617774367104 237.95863481289837 L 1429.617774367104 237.95863481289837 L 1429.617774367104 237.95863481289837 A 15 15 0 0 1 1414.617774367104 252.95863481289837 L 1414.617774367104 252.95863481289837 L 1414.617774367104 252.95863481289837 A 15 15 0 0 1 1399.617774367104 237.95863481289837 L 1399.617774367104 237.95863481289837 L 1399.617774367104 237.95863481289837 A 15 15 0 0 1 1414.617774367104 222.95863481289837 L 1414.617774367104 222.95863481289837 Z" fill-opacity="1" stroke-miterlimit="10" stroke-width="1.25"/><path fill="rgb(255,255,255)" stroke="rgb(85,85,85)" paint-order="fill stroke markers" d="" fill-opacity="1" stroke-opacity="1" stroke-miterlimit="10" stroke-width="1.25"/><text fill="rgb(0,0,0)" stroke="none" font-family="Helvetica" font-size="11px" font-style="normal" font-weight="normal" text-decoration="normal" x="1414.617774367104" y="243.45863481289837" text-anchor="middle" dominant-baseline="text-after-edge" fill-opacity="1">izocitrato</text><path fill="rgb(255,255,255)" stroke="#555555" paint-order="fill stroke markers" d=" M 1367.8629634254762 51.09757914901245 L 1397.8818368189573 51.09757914901245 L 1397.8818368189573 51.09757914901245 A 8 8 0 0 1 1405.8818368189573 59.09757914901245 L 1405.8818368189573 84.20063461690937 L 1405.8818368189573 84.20063461690937 A 8 8 0 0 1 1397.8818368189573 92.20063461690937 L 1337.8440900319952 92.20063461690937 L 1337.8440900319952 92.20063461690937 A 8 8 0 0 1 1329.8440900319952 84.20063461690937 L 1329.8440900319952 59.09757914901245 L 1329.8440900319952 59.09757914901245 A 8 8 0 0 1 1337.8440900319952 51.09757914901245 L 1367.8629634254762 51.09757914901245 Z" fill-opacity="1" stroke-miterlimit="10" stroke-width="1.25"/><path fill="rgb(255,255,255)" stroke="rgb(85,85,85)" paint-order="fill stroke markers" d="" fill-opacity="1" stroke-opacity="1" stroke-miterlimit="10" stroke-width="1.25"/><text fill="rgb(0,0,0)" stroke="none" font-family="Helvetica" font-size="11px" font-style="normal" font-weight="normal" text-decoration="normal" x="1367.8629634254762" y="77.14910688296091" text-anchor="middle" dominant-baseline="text-after-edge" fill-opacity="1">akonitazo</text><path fill="rgb(255,255,255)" stroke="#555555" paint-order="fill stroke markers" d=" M 1490.7360179827235 418.3632969165487 L 1490.7360179827235 418.3632969165487 L 1490.7360179827235 418.3632969165487 A 15 15 0 0 1 1505.7360179827235 433.3632969165487 L 1505.7360179827235 433.3632969165487 L 1505.7360179827235 433.3632969165487 A 15 15 0 0 1 1490.7360179827235 448.3632969165487 L 1490.7360179827235 448.3632969165487 L 1490.7360179827235 448.3632969165487 A 15 15 0 0 1 1475.7360179827235 433.3632969165487 L 1475.7360179827235 433.3632969165487 L 1475.7360179827235 433.3632969165487 A 15 15 0 0 1 1490.7360179827235 418.3632969165487 L 1490.7360179827235 418.3632969165487 Z" fill-opacity="1" stroke-miterlimit="10" stroke-width="1.25"/><path fill="rgb(255,255,255)" stroke="rgb(85,85,85)" paint-order="fill stroke markers" d="" fill-opacity="1" stroke-opacity="1" stroke-miterlimit="10" stroke-width="1.25"/><text fill="rgb(0,0,0)" stroke="none" font-family="Helvetica" font-size="11px" font-style="normal" font-weight="normal" text-decoration="normal" x="1490.7360179827235" y="433.3632969165487" text-anchor="middle" dominant-baseline="text-after-edge" fill-opacity="1">alfo-</text><text fill="rgb(0,0,0)" stroke="none" font-family="Helvetica" font-size="11px" font-style="normal" font-weight="normal" text-decoration="normal" x="1490.7360179827235" y="444.3632969165487" text-anchor="middle" dominant-baseline="text-after-edge" fill-opacity="1">ketoglutarato</text><path fill="rgb(255,255,255)" stroke="#555555" paint-order="fill stroke markers" d=" M 1514.6061789387788 363.2201607439771 L 1514.6061789387788 363.2201607439771 L 1514.6061789387788 363.2201607439771 A 15 15 0 0 1 1529.6061789387788 378.2201607439771 L 1529.6061789387788 378.2201607439771 L 1529.6061789387788 378.2201607439771 A 15 15 0 0 1 1514.6061789387788 393.2201607439771 L 1514.6061789387788 393.2201607439771 L 1514.6061789387788 393.2201607439771 A 15 15 0 0 1 1499.6061789387788 378.2201607439771 L 1499.6061789387788 378.2201607439771 L 1499.6061789387788 378.2201607439771 A 15 15 0 0 1 1514.6061789387788 363.2201607439771 L 1514.6061789387788 363.2201607439771 Z" fill-opacity="1" stroke-miterlimit="10" stroke-width="1.25"/><path fill="#838383" stroke="none" paint-order="stroke fill markers" d=" M 1502.1570637593775 385.4076607439771 L 1514.6061789387788 385.4076607439771 L 1514.6061789387788 392.5951607439771 A 14.375 14.375 0 0 1 1502.1570637593775 385.4076607439771 Z" fill-opacity="1"/><path fill="#838383" stroke="none" paint-order="stroke fill markers" d=" M 1514.6061789387788 385.4076607439771 L 1527.0552941181802 385.4076607439771 L 1527.0552941181802 385.4076607439771 A 14.375 14.375 0 0 1 1514.6061789387788 392.5951607439771 Z" fill-opacity="1"/><path fill="#838383" stroke="none" paint-order="stroke fill markers" d=" M 1514.6061789387788 385.4076607439771 L 1514.6061789387788 392.5951607439771 L 1514.6061789387788 392.5951607439771 L 1514.6061789387788 385.4076607439771 Z" fill-opacity="1"/><path fill="rgb(255,255,255)" stroke="rgb(85,85,85)" paint-order="fill stroke markers" d="" fill-opacity="1" stroke-opacity="1" stroke-miterlimit="10" stroke-width="1.25"/><text fill="rgb(0,0,0)" stroke="none" font-family="Helvetica" font-size="11px" font-style="normal" font-weight="normal" text-decoration="normal" x="1514.6061789387788" y="383.7201607439771" text-anchor="middle" dominant-baseline="text-after-edge" fill-opacity="1">CO2</text><path fill="rgb(255,255,255)" stroke="#555555" paint-order="fill stroke markers" d=" M 1380.1941674726313 363.47640524356007 L 1380.1941674726313 363.47640524356007 L 1380.1941674726313 363.47640524356007 A 15 15 0 0 1 1395.1941674726313 378.47640524356007 L 1395.1941674726313 378.47640524356007 L 1395.1941674726313 378.47640524356007 A 15 15 0 0 1 1380.1941674726313 393.47640524356007 L 1380.1941674726313 393.47640524356007 L 1380.1941674726313 393.47640524356007 A 15 15 0 0 1 1365.1941674726313 378.47640524356007 L 1365.1941674726313 378.47640524356007 L 1365.1941674726313 378.47640524356007 A 15 15 0 0 1 1380.1941674726313 363.47640524356007 L 1380.1941674726313 363.47640524356007 Z" fill-opacity="1" stroke-miterlimit="10" stroke-width="1.25"/><path fill="#838383" stroke="none" paint-order="stroke fill markers" d=" M 1367.74505229323 385.66390524356007 L 1380.1941674726313 385.66390524356007 L 1380.1941674726313 392.85140524356007 A 14.375 14.375 0 0 1 1367.74505229323 385.66390524356007 Z" fill-opacity="1"/><path fill="#838383" stroke="none" paint-order="stroke fill markers" d=" M 1380.1941674726313 385.66390524356007 L 1392.6432826520327 385.66390524356007 L 1392.6432826520327 385.66390524356007 A 14.375 14.375 0 0 1 1380.1941674726313 392.85140524356007 Z" fill-opacity="1"/><path fill="#838383" stroke="none" paint-order="stroke fill markers" d=" M 1380.1941674726313 385.66390524356007 L 1380.1941674726313 392.85140524356007 L 1380.1941674726313 392.85140524356007 L 1380.1941674726313 385.66390524356007 Z" fill-opacity="1"/><path fill="rgb(255,255,255)" stroke="rgb(85,85,85)" paint-order="fill stroke markers" d="" fill-opacity="1" stroke-opacity="1" stroke-miterlimit="10" stroke-width="1.25"/><text fill="rgb(0,0,0)" stroke="none" font-family="Helvetica" font-size="11px" font-style="normal" font-weight="normal" text-decoration="normal" x="1380.1941674726313" y="383.97640524356007" text-anchor="middle" dominant-baseline="text-after-edge" fill-opacity="1">NADH</text><path fill="rgb(255,255,255)" stroke="rgb(85,85,85)" paint-order="fill stroke markers" d=" M 1463.49064555915 299.3800634370314 L 1463.49064555915 302.4157777227457 L 1456.0076098448642 302.4157777227457 L 1456.0076098448642 317.59434915131715 L 1463.49064555915 317.59434915131715 L 1463.49064555915 320.6300634370314 L 1463.70314555915 320.6300634370314 L 1463.70314555915 317.59434915131715 L 1471.1861812734357 317.59434915131715 L 1471.1861812734357 302.4157777227457 L 1463.70314555915 302.4157777227457 L 1463.70314555915 299.3800634370314 Z" fill-opacity="1" stroke-opacity="1" stroke-miterlimit="10" stroke-width="1.25"/><path fill="rgb(255,255,255)" stroke="#555555" paint-order="fill stroke markers" d=" M 1553.1666271358313 213.4566930128712 L 1593.6717195823262 213.4566930128712 L 1593.6717195823262 213.4566930128712 A 8 8 0 0 1 1601.6717195823262 221.4566930128712 L 1601.6717195823262 246.55974848076812 L 1601.6717195823262 246.55974848076812 A 8 8 0 0 1 1593.6717195823262 254.55974848076812 L 1512.6615346893363 254.55974848076812 L 1512.6615346893363 254.55974848076812 A 8 8 0 0 1 1504.6615346893363 246.55974848076812 L 1504.6615346893363 221.4566930128712 L 1504.6615346893363 221.4566930128712 A 8 8 0 0 1 1512.6615346893363 213.4566930128712 L 1553.1666271358313 213.4566930128712 Z" fill-opacity="1" stroke-miterlimit="10" stroke-width="1.25"/><path fill="rgb(255,255,255)" stroke="rgb(85,85,85)" paint-order="fill stroke markers" d="" fill-opacity="1" stroke-opacity="1" stroke-miterlimit="10" stroke-width="1.25"/><text fill="rgb(0,0,0)" stroke="none" font-family="Helvetica" font-size="11px" font-style="normal" font-weight="normal" text-decoration="normal" x="1553.1666271358313" y="234.00822074681966" text-anchor="middle" dominant-baseline="text-after-edge" fill-opacity="1">izocitrat-</text><text fill="rgb(0,0,0)" stroke="none" font-family="Helvetica" font-size="11px" font-style="normal" font-weight="normal" text-decoration="normal" x="1553.1666271358313" y="245.00822074681966" text-anchor="middle" dominant-baseline="text-after-edge" fill-opacity="1">dehidrogenazo</text><path fill="rgb(255,255,255)" stroke="#555555" paint-order="fill stroke markers" d=" M 1302.7593779306535 259.4850520806087 L 1302.7593779306535 259.4850520806087 L 1302.7593779306535 259.4850520806087 A 15 15 0 0 1 1317.7593779306535 274.4850520806087 L 1317.7593779306535 274.4850520806087 L 1317.7593779306535 274.4850520806087 A 15 15 0 0 1 1302.7593779306535 289.4850520806087 L 1302.7593779306535 289.4850520806087 L 1302.7593779306535 289.4850520806087 A 15 15 0 0 1 1287.7593779306535 274.4850520806087 L 1287.7593779306535 274.4850520806087 L 1287.7593779306535 274.4850520806087 A 15 15 0 0 1 1302.7593779306535 259.4850520806087 L 1302.7593779306535 259.4850520806087 Z" fill-opacity="1" stroke-miterlimit="10" stroke-width="1.25"/><path fill="rgb(255,255,255)" stroke="rgb(85,85,85)" paint-order="fill stroke markers" d="" fill-opacity="1" stroke-opacity="1" stroke-miterlimit="10" stroke-width="1.25"/><text fill="rgb(0,0,0)" stroke="none" font-family="Helvetica" font-size="11px" font-style="normal" font-weight="normal" text-decoration="normal" x="1302.7593779306535" y="279.9850520806087" text-anchor="middle" dominant-baseline="text-after-edge" fill-opacity="1">NAD+</text><path fill="rgb(255,255,255)" stroke="rgb(85,85,85)" paint-order="fill stroke markers" d=" M 1483.0932462558073 547.4289394347268 L 1483.0932462558073 550.4646537204411 L 1475.6102105415216 550.4646537204411 L 1475.6102105415216 565.6432251490124 L 1483.0932462558073 565.6432251490124 L 1483.0932462558073 568.6789394347268 L 1483.3057462558074 568.6789394347268 L 1483.3057462558074 565.6432251490124 L 1490.7887819700932 565.6432251490124 L 1490.7887819700932 550.4646537204411 L 1483.3057462558074 550.4646537204411 L 1483.3057462558074 547.4289394347268 Z" fill-opacity="1" stroke-opacity="1" stroke-miterlimit="10" stroke-width="1.25"/><path fill="rgb(255,255,255)" stroke="#555555" paint-order="fill stroke markers" d=" M 1390.6602522095195 688.3093788467946 L 1391.7236931514465 688.3093788467946 L 1391.7236931514465 688.3093788467946 A 16.14949075535051 16.14949075535051 0 0 1 1407.873183906797 704.4588696021451 L 1407.873183906797 704.4588696021451 L 1407.873183906797 704.4588696021451 A 16.14949075535051 16.14949075535051 0 0 1 1391.7236931514465 720.6083603574956 L 1389.5968112675926 720.6083603574956 L 1389.5968112675926 720.6083603574956 A 16.14949075535051 16.14949075535051 0 0 1 1373.447320512242 704.4588696021451 L 1373.447320512242 704.4588696021451 L 1373.447320512242 704.4588696021451 A 16.14949075535051 16.14949075535051 0 0 1 1389.5968112675926 688.3093788467946 L 1390.6602522095195 688.3093788467946 Z" fill-opacity="1" stroke-miterlimit="10" stroke-width="1.25"/><path fill="rgb(255,255,255)" stroke="rgb(85,85,85)" paint-order="fill stroke markers" d="" fill-opacity="1" stroke-opacity="1" stroke-miterlimit="10" stroke-width="1.25"/><text fill="rgb(0,0,0)" stroke="none" font-family="Helvetica" font-size="11px" font-style="normal" font-weight="normal" text-decoration="normal" x="1390.6602522095195" y="704.4588696021451" text-anchor="middle" dominant-baseline="text-after-edge" fill-opacity="1">sukcinil-</text><text fill="rgb(0,0,0)" stroke="none" font-family="Helvetica" font-size="11px" font-style="normal" font-weight="normal" text-decoration="normal" x="1390.6602522095195" y="715.4588696021451" text-anchor="middle" dominant-baseline="text-after-edge" fill-opacity="1">CoA</text><path fill="rgb(255,255,255)" stroke="#555555" paint-order="fill stroke markers" d=" M 1648.046313967978 569.1367616004904 L 1700.49411704661 569.1367616004904 L 1700.49411704661 569.1367616004904 A 8 8 0 0 1 1708.49411704661 577.1367616004904 L 1708.49411704661 603.4734898981537 L 1708.49411704661 603.4734898981537 A 8 8 0 0 1 1700.49411704661 611.4734898981537 L 1595.598510889346 611.4734898981537 L 1595.598510889346 611.4734898981537 A 8 8 0 0 1 1587.598510889346 603.4734898981537 L 1587.598510889346 577.1367616004904 L 1587.598510889346 577.1367616004904 A 8 8 0 0 1 1595.598510889346 569.1367616004904 L 1648.046313967978 569.1367616004904 Z" fill-opacity="1" stroke-miterlimit="10" stroke-width="1.25"/><path fill="rgb(255,255,255)" stroke="rgb(85,85,85)" paint-order="fill stroke markers" d="" fill-opacity="1" stroke-opacity="1" stroke-miterlimit="10" stroke-width="1.25"/><text fill="rgb(0,0,0)" stroke="none" font-family="Helvetica" font-size="11px" font-style="normal" font-weight="normal" text-decoration="normal" x="1648.046313967978" y="590.3051257493221" text-anchor="middle" dominant-baseline="text-after-edge" fill-opacity="1">dihidrolipoamid-</text><text fill="rgb(0,0,0)" stroke="none" font-family="Helvetica" font-size="11px" font-style="normal" font-weight="normal" text-decoration="normal" x="1648.046313967978" y="601.3051257493221" text-anchor="middle" dominant-baseline="text-after-edge" fill-opacity="1">dehidrogenazo</text><path fill="rgb(255,255,255)" stroke="#555555" paint-order="fill stroke markers" d=" M 1649.4751581307446 477.39164895100663 L 1703.479999631957 477.39164895100663 L 1703.479999631957 477.39164895100663 A 8 8 0 0 1 1711.479999631957 485.39164895100663 L 1711.479999631957 506.79368592960464 L 1711.479999631957 506.79368592960464 A 8 8 0 0 1 1703.479999631957 514.7936859296046 L 1595.4703166295321 514.7936859296046 L 1595.4703166295321 514.7936859296046 A 8 8 0 0 1 1587.4703166295321 506.79368592960464 L 1587.4703166295321 485.39164895100663 L 1587.4703166295321 485.39164895100663 A 8 8 0 0 1 1595.4703166295321 477.39164895100663 L 1649.4751581307446 477.39164895100663 Z" fill-opacity="1" stroke-miterlimit="10" stroke-width="1.25"/><path fill="rgb(255,255,255)" stroke="rgb(85,85,85)" paint-order="fill stroke markers" d="" fill-opacity="1" stroke-opacity="1" stroke-miterlimit="10" stroke-width="1.25"/><text fill="rgb(0,0,0)" stroke="none" font-family="Helvetica" font-size="11px" font-style="normal" font-weight="normal" text-decoration="normal" x="1649.4751581307446" y="496.0926674403056" text-anchor="middle" dominant-baseline="text-after-edge" fill-opacity="1">-ketoglutarat-</text><text fill="rgb(0,0,0)" stroke="none" font-family="Helvetica" font-size="11px" font-style="normal" font-weight="normal" text-decoration="normal" x="1649.4751581307446" y="507.0926674403056" text-anchor="middle" dominant-baseline="text-after-edge" fill-opacity="1">dehidrogenazo</text><path fill="rgb(255,255,255)" stroke="#555555" paint-order="fill stroke markers" d=" M 1647.5220797930967 520.3900372549563 L 1700.616614057357 520.3900372549563 L 1700.616614057357 520.3900372549563 A 8 8 0 0 1 1708.616614057357 528.3900372549563 L 1708.616614057357 557.1941112121522 L 1708.616614057357 557.1941112121522 A 8 8 0 0 1 1700.616614057357 565.1941112121522 L 1594.4275455288364 565.1941112121522 L 1594.4275455288364 565.1941112121522 A 8 8 0 0 1 1586.4275455288364 557.1941112121522 L 1586.4275455288364 528.3900372549563 L 1586.4275455288364 528.3900372549563 A 8 8 0 0 1 1594.4275455288364 520.3900372549563 L 1647.5220797930967 520.3900372549563 Z" fill-opacity="1" stroke-miterlimit="10" stroke-width="1.25"/><path fill="rgb(255,255,255)" stroke="rgb(85,85,85)" paint-order="fill stroke markers" d="" fill-opacity="1" stroke-opacity="1" stroke-miterlimit="10" stroke-width="1.25"/><text fill="rgb(0,0,0)" stroke="none" font-family="Helvetica" font-size="11px" font-style="normal" font-weight="normal" text-decoration="normal" x="1647.5220797930967" y="542.7920742335542" text-anchor="middle" dominant-baseline="text-after-edge" fill-opacity="1">dihidrolipoamid-</text><text fill="rgb(0,0,0)" stroke="none" font-family="Helvetica" font-size="11px" font-style="normal" font-weight="normal" text-decoration="normal" x="1647.5220797930967" y="553.7920742335542" text-anchor="middle" dominant-baseline="text-after-edge" fill-opacity="1">sukciniltransferazo</text><path fill="rgb(255,255,255)" stroke="#555555" paint-order="fill stroke markers" d=" M 1411.6830418501372 452.22595836796825 L 1411.6830418501372 452.22595836796825 L 1411.6830418501372 452.22595836796825 A 15 15 0 0 1 1426.6830418501372 467.22595836796825 L 1426.6830418501372 467.22595836796825 L 1426.6830418501372 467.22595836796825 A 15 15 0 0 1 1411.6830418501372 482.22595836796825 L 1411.6830418501372 482.22595836796825 L 1411.6830418501372 482.22595836796825 A 15 15 0 0 1 1396.6830418501372 467.22595836796825 L 1396.6830418501372 467.22595836796825 L 1396.6830418501372 467.22595836796825 A 15 15 0 0 1 1411.6830418501372 452.22595836796825 L 1411.6830418501372 452.22595836796825 Z" fill-opacity="1" stroke-miterlimit="10" stroke-width="1.25"/><path fill="#838383" stroke="none" paint-order="stroke fill markers" d=" M 1399.2339266707359 474.41345836796825 L 1411.6830418501372 474.41345836796825 L 1411.6830418501372 481.60095836796825 A 14.375 14.375 0 0 1 1399.2339266707359 474.41345836796825 Z" fill-opacity="1"/><path fill="#838383" stroke="none" paint-order="stroke fill markers" d=" M 1411.6830418501372 474.41345836796825 L 1424.1321570295386 474.41345836796825 L 1424.1321570295386 474.41345836796825 A 14.375 14.375 0 0 1 1411.6830418501372 481.60095836796825 Z" fill-opacity="1"/><path fill="#838383" stroke="none" paint-order="stroke fill markers" d=" M 1411.6830418501372 474.41345836796825 L 1411.6830418501372 481.60095836796825 L 1411.6830418501372 481.60095836796825 L 1411.6830418501372 474.41345836796825 Z" fill-opacity="1"/><path fill="rgb(255,255,255)" stroke="rgb(85,85,85)" paint-order="fill stroke markers" d="" fill-opacity="1" stroke-opacity="1" stroke-miterlimit="10" stroke-width="1.25"/><text fill="rgb(0,0,0)" stroke="none" font-family="Helvetica" font-size="11px" font-style="normal" font-weight="normal" text-decoration="normal" x="1411.6830418501372" y="472.72595836796825" text-anchor="middle" dominant-baseline="text-after-edge" fill-opacity="1">NAD+</text><path fill="rgb(255,255,255)" stroke="#555555" paint-order="fill stroke markers" d=" M 1371.5753321154473 500.98124605235216 L 1371.5753321154473 500.98124605235216 L 1371.5753321154473 500.98124605235216 A 15 15 0 0 1 1386.5753321154473 515.9812460523522 L 1386.5753321154473 515.9812460523522 L 1386.5753321154473 515.9812460523522 A 15 15 0 0 1 1371.5753321154473 530.9812460523522 L 1371.5753321154473 530.9812460523522 L 1371.5753321154473 530.9812460523522 A 15 15 0 0 1 1356.5753321154473 515.9812460523522 L 1356.5753321154473 515.9812460523522 L 1356.5753321154473 515.9812460523522 A 15 15 0 0 1 1371.5753321154473 500.98124605235216 L 1371.5753321154473 500.98124605235216 Z" fill-opacity="1" stroke-miterlimit="10" stroke-width="1.25"/><path fill="#838383" stroke="none" paint-order="stroke fill markers" d=" M 1359.126216936046 523.1687460523522 L 1371.5753321154473 523.1687460523522 L 1371.5753321154473 530.3562460523522 A 14.375 14.375 0 0 1 1359.126216936046 523.1687460523522 Z" fill-opacity="1"/><path fill="#838383" stroke="none" paint-order="stroke fill markers" d=" M 1371.5753321154473 523.1687460523522 L 1384.0244472948486 523.1687460523522 L 1384.0244472948486 523.1687460523522 A 14.375 14.375 0 0 1 1371.5753321154473 530.3562460523522 Z" fill-opacity="1"/><path fill="#838383" stroke="none" paint-order="stroke fill markers" d=" M 1371.5753321154473 523.1687460523522 L 1371.5753321154473 530.3562460523522 L 1371.5753321154473 530.3562460523522 L 1371.5753321154473 523.1687460523522 Z" fill-opacity="1"/><path fill="rgb(255,255,255)" stroke="rgb(85,85,85)" paint-order="fill stroke markers" d="" fill-opacity="1" stroke-opacity="1" stroke-miterlimit="10" stroke-width="1.25"/><text fill="rgb(0,0,0)" stroke="none" font-family="Helvetica" font-size="11px" font-style="normal" font-weight="normal" text-decoration="normal" x="1371.5753321154473" y="521.4812460523522" text-anchor="middle" dominant-baseline="text-after-edge" fill-opacity="1">CoA-SH</text><path fill="rgb(255,255,255)" stroke="#555555" paint-order="fill stroke markers" d=" M 1347.2933459753556 614.4020376232521 L 1347.2933459753556 614.4020376232521 L 1347.2933459753556 614.4020376232521 A 15 15 0 0 1 1362.2933459753556 629.4020376232521 L 1362.2933459753556 629.4020376232521 L 1362.2933459753556 629.4020376232521 A 15 15 0 0 1 1347.2933459753556 644.4020376232521 L 1347.2933459753556 644.4020376232521 L 1347.2933459753556 644.4020376232521 A 15 15 0 0 1 1332.2933459753556 629.4020376232521 L 1332.2933459753556 629.4020376232521 L 1332.2933459753556 629.4020376232521 A 15 15 0 0 1 1347.2933459753556 614.4020376232521 L 1347.2933459753556 614.4020376232521 Z" fill-opacity="1" stroke-miterlimit="10" stroke-width="1.25"/><path fill="#838383" stroke="none" paint-order="stroke fill markers" d=" M 1334.8442307959542 636.5895376232521 L 1347.2933459753556 636.5895376232521 L 1347.2933459753556 643.7770376232521 A 14.375 14.375 0 0 1 1334.8442307959542 636.5895376232521 Z" fill-opacity="1"/><path fill="#838383" stroke="none" paint-order="stroke fill markers" d=" M 1347.2933459753556 636.5895376232521 L 1359.742461154757 636.5895376232521 L 1359.742461154757 636.5895376232521 A 14.375 14.375 0 0 1 1347.2933459753556 643.7770376232521 Z" fill-opacity="1"/><path fill="#838383" stroke="none" paint-order="stroke fill markers" d=" M 1347.2933459753556 636.5895376232521 L 1347.2933459753556 643.7770376232521 L 1347.2933459753556 643.7770376232521 L 1347.2933459753556 636.5895376232521 Z" fill-opacity="1"/><path fill="rgb(255,255,255)" stroke="rgb(85,85,85)" paint-order="fill stroke markers" d="" fill-opacity="1" stroke-opacity="1" stroke-miterlimit="10" stroke-width="1.25"/><text fill="rgb(0,0,0)" stroke="none" font-family="Helvetica" font-size="11px" font-style="normal" font-weight="normal" text-decoration="normal" x="1347.2933459753556" y="634.9020376232521" text-anchor="middle" dominant-baseline="text-after-edge" fill-opacity="1">NADH</text><path fill="rgb(255,255,255)" stroke="#555555" paint-order="fill stroke markers" d=" M 1492.8081978732318 618.842154813114 L 1492.8081978732318 618.842154813114 L 1492.8081978732318 618.842154813114 A 15 15 0 0 1 1507.8081978732318 633.842154813114 L 1507.8081978732318 633.842154813114 L 1507.8081978732318 633.842154813114 A 15 15 0 0 1 1492.8081978732318 648.842154813114 L 1492.8081978732318 648.842154813114 L 1492.8081978732318 648.842154813114 A 15 15 0 0 1 1477.8081978732318 633.842154813114 L 1477.8081978732318 633.842154813114 L 1477.8081978732318 633.842154813114 A 15 15 0 0 1 1492.8081978732318 618.842154813114 L 1492.8081978732318 618.842154813114 Z" fill-opacity="1" stroke-miterlimit="10" stroke-width="1.25"/><path fill="#838383" stroke="none" paint-order="stroke fill markers" d=" M 1480.3590826938305 641.029654813114 L 1492.8081978732318 641.029654813114 L 1492.8081978732318 648.217154813114 A 14.375 14.375 0 0 1 1480.3590826938305 641.029654813114 Z" fill-opacity="1"/><path fill="#838383" stroke="none" paint-order="stroke fill markers" d=" M 1492.8081978732318 641.029654813114 L 1505.2573130526332 641.029654813114 L 1505.2573130526332 641.029654813114 A 14.375 14.375 0 0 1 1492.8081978732318 648.217154813114 Z" fill-opacity="1"/><path fill="#838383" stroke="none" paint-order="stroke fill markers" d=" M 1492.8081978732318 641.029654813114 L 1492.8081978732318 648.217154813114 L 1492.8081978732318 648.217154813114 L 1492.8081978732318 641.029654813114 Z" fill-opacity="1"/><path fill="rgb(255,255,255)" stroke="rgb(85,85,85)" paint-order="fill stroke markers" d="" fill-opacity="1" stroke-opacity="1" stroke-miterlimit="10" stroke-width="1.25"/><text fill="rgb(0,0,0)" stroke="none" font-family="Helvetica" font-size="11px" font-style="normal" font-weight="normal" text-decoration="normal" x="1492.8081978732318" y="639.342154813114" text-anchor="middle" dominant-baseline="text-after-edge" fill-opacity="1">CO2</text><path fill="rgb(255,255,255)" stroke="rgb(85,85,85)" paint-order="fill stroke markers" d=" M 1244.3542610553243 775.6169603866574 L 1247.3899753410385 775.6169603866574 L 1247.3899753410385 768.1339246723718 L 1262.56854676961 768.1339246723718 L 1262.56854676961 775.6169603866574 L 1265.6042610553243 775.6169603866574 L 1265.6042610553243 775.8294603866575 L 1262.56854676961 775.8294603866575 L 1262.56854676961 783.3124961009431 L 1247.3899753410385 783.3124961009431 L 1247.3899753410385 775.8294603866575 L 1244.3542610553243 775.8294603866575 Z" fill-opacity="1" stroke-opacity="1" stroke-miterlimit="10" stroke-width="1.25"/><path fill="rgb(255,255,255)" stroke="#555555" paint-order="fill stroke markers" d=" M 1117.1023682209511 702.7672199325477 L 1117.1023682209511 702.7672199325477 L 1117.1023682209511 702.7672199325477 A 15 15 0 0 1 1132.1023682209511 717.7672199325477 L 1132.1023682209511 717.7672199325477 L 1132.1023682209511 717.7672199325477 A 15 15 0 0 1 1117.1023682209511 732.7672199325477 L 1117.1023682209511 732.7672199325477 L 1117.1023682209511 732.7672199325477 A 15 15 0 0 1 1102.1023682209511 717.7672199325477 L 1102.1023682209511 717.7672199325477 L 1102.1023682209511 717.7672199325477 A 15 15 0 0 1 1117.1023682209511 702.7672199325477 L 1117.1023682209511 702.7672199325477 Z" fill-opacity="1" stroke-miterlimit="10" stroke-width="1.25"/><path fill="rgb(255,255,255)" stroke="rgb(85,85,85)" paint-order="fill stroke markers" d="" fill-opacity="1" stroke-opacity="1" stroke-miterlimit="10" stroke-width="1.25"/><text fill="rgb(0,0,0)" stroke="none" font-family="Helvetica" font-size="11px" font-style="normal" font-weight="normal" text-decoration="normal" x="1117.1023682209511" y="723.2672199325477" text-anchor="middle" dominant-baseline="text-after-edge" fill-opacity="1">CoA-SH</text><path fill="rgb(255,255,255)" stroke="#555555" paint-order="fill stroke markers" d=" M 1080.458953832945 781.606081191591 L 1080.458953832945 781.606081191591 L 1080.458953832945 781.606081191591 A 15 15 0 0 1 1095.458953832945 796.606081191591 L 1095.458953832945 796.606081191591 L 1095.458953832945 796.606081191591 A 15 15 0 0 1 1080.458953832945 811.606081191591 L 1080.458953832945 811.606081191591 L 1080.458953832945 811.606081191591 A 15 15 0 0 1 1065.458953832945 796.606081191591 L 1065.458953832945 796.606081191591 L 1065.458953832945 796.606081191591 A 15 15 0 0 1 1080.458953832945 781.606081191591 L 1080.458953832945 781.606081191591 Z" fill-opacity="1" stroke-miterlimit="10" stroke-width="1.25"/><path fill="rgb(255,255,255)" stroke="rgb(85,85,85)" paint-order="fill stroke markers" d="" fill-opacity="1" stroke-opacity="1" stroke-miterlimit="10" stroke-width="1.25"/><text fill="rgb(0,0,0)" stroke="none" font-family="Helvetica" font-size="11px" font-style="normal" font-weight="normal" text-decoration="normal" x="1080.458953832945" y="802.106081191591" text-anchor="middle" dominant-baseline="text-after-edge" fill-opacity="1">sukcinato</text><path fill="rgb(255,255,255)" stroke="#555555" paint-order="fill stroke markers" d=" M 1144.862530636107 736.079414830735 L 1144.862530636107 736.079414830735 L 1144.862530636107 736.079414830735 A 15 15 0 0 1 1159.862530636107 751.079414830735 L 1159.862530636107 751.079414830735 L 1159.862530636107 751.079414830735 A 15 15 0 0 1 1144.862530636107 766.079414830735 L 1144.862530636107 766.079414830735 L 1144.862530636107 766.079414830735 A 15 15 0 0 1 1129.862530636107 751.079414830735 L 1129.862530636107 751.079414830735 L 1129.862530636107 751.079414830735 A 15 15 0 0 1 1144.862530636107 736.079414830735 L 1144.862530636107 736.079414830735 Z" fill-opacity="1" stroke-miterlimit="10" stroke-width="1.25"/><path fill="rgb(255,255,255)" stroke="rgb(85,85,85)" paint-order="fill stroke markers" d="" fill-opacity="1" stroke-opacity="1" stroke-miterlimit="10" stroke-width="1.25"/><text fill="rgb(0,0,0)" stroke="none" font-family="Helvetica" font-size="11px" font-style="normal" font-weight="normal" text-decoration="normal" x="1144.862530636107" y="756.579414830735" text-anchor="middle" dominant-baseline="text-after-edge" fill-opacity="1">GTP</text><path fill="rgb(255,255,255)" stroke="#555555" paint-order="fill stroke markers" d=" M 1235.915863357819 655.0197405784793 L 1235.915863357819 655.0197405784793 L 1235.915863357819 655.0197405784793 A 15 15 0 0 1 1250.915863357819 670.0197405784793 L 1250.915863357819 670.0197405784793 L 1250.915863357819 670.0197405784793 A 15 15 0 0 1 1235.915863357819 685.0197405784793 L 1235.915863357819 685.0197405784793 L 1235.915863357819 685.0197405784793 A 15 15 0 0 1 1220.915863357819 670.0197405784793 L 1220.915863357819 670.0197405784793 L 1220.915863357819 670.0197405784793 A 15 15 0 0 1 1235.915863357819 655.0197405784793 L 1235.915863357819 655.0197405784793 Z" fill-opacity="1" stroke-miterlimit="10" stroke-width="1.25"/><path fill="rgb(255,255,255)" stroke="rgb(85,85,85)" paint-order="fill stroke markers" d="" fill-opacity="1" stroke-opacity="1" stroke-miterlimit="10" stroke-width="1.25"/><text fill="rgb(0,0,0)" stroke="none" font-family="Helvetica" font-size="11px" font-style="normal" font-weight="normal" text-decoration="normal" x="1235.915863357819" y="675.5197405784793" text-anchor="middle" dominant-baseline="text-after-edge" fill-opacity="1">GDP</text><path fill="rgb(255,255,255)" stroke="#555555" paint-order="fill stroke markers" d=" M 1275.8904972356438 679.4486835038165 L 1275.8904972356438 679.4486835038165 L 1275.8904972356438 679.4486835038165 A 15 15 0 0 1 1290.8904972356438 694.4486835038165 L 1290.8904972356438 694.4486835038165 L 1290.8904972356438 694.4486835038165 A 15 15 0 0 1 1275.8904972356438 709.4486835038165 L 1275.8904972356438 709.4486835038165 L 1275.8904972356438 709.4486835038165 A 15 15 0 0 1 1260.8904972356438 694.4486835038165 L 1260.8904972356438 694.4486835038165 L 1260.8904972356438 694.4486835038165 A 15 15 0 0 1 1275.8904972356438 679.4486835038165 L 1275.8904972356438 679.4486835038165 Z" fill-opacity="1" stroke-miterlimit="10" stroke-width="1.25"/><path fill="rgb(255,255,255)" stroke="rgb(85,85,85)" paint-order="fill stroke markers" d="" fill-opacity="1" stroke-opacity="1" stroke-miterlimit="10" stroke-width="1.25"/><text fill="rgb(0,0,0)" stroke="none" font-family="Helvetica" font-size="11px" font-style="normal" font-weight="normal" text-decoration="normal" x="1275.8904972356438" y="699.9486835038165" text-anchor="middle" dominant-baseline="text-after-edge" fill-opacity="1">fosfato</text><path fill="rgb(255,255,255)" stroke="#555555" paint-order="fill stroke markers" d=" M 1368.058159325026 774.9403228595146 L 1404.4973666519713 774.9403228595146 L 1404.4973666519713 774.9403228595146 A 8 8 0 0 1 1412.4973666519713 782.9403228595146 L 1412.4973666519713 809.1581136746221 L 1412.4973666519713 809.1581136746221 A 8 8 0 0 1 1404.4973666519713 817.1581136746221 L 1331.6189519980808 817.1581136746221 L 1331.6189519980808 817.1581136746221 A 8 8 0 0 1 1323.6189519980808 809.1581136746221 L 1323.6189519980808 782.9403228595146 L 1323.6189519980808 782.9403228595146 A 8 8 0 0 1 1331.6189519980808 774.9403228595146 L 1368.058159325026 774.9403228595146 Z" fill-opacity="1" stroke-miterlimit="10" stroke-width="1.25"/><path fill="rgb(255,255,255)" stroke="rgb(85,85,85)" paint-order="fill stroke markers" d="" fill-opacity="1" stroke-opacity="1" stroke-miterlimit="10" stroke-width="1.25"/><text fill="rgb(0,0,0)" stroke="none" font-family="Helvetica" font-size="11px" font-style="normal" font-weight="normal" text-decoration="normal" x="1368.058159325026" y="796.0492182670683" text-anchor="middle" dominant-baseline="text-after-edge" fill-opacity="1">sukcinil-CoA-</text><text fill="rgb(0,0,0)" stroke="none" font-family="Helvetica" font-size="11px" font-style="normal" font-weight="normal" text-decoration="normal" x="1368.058159325026" y="807.0492182670683" text-anchor="middle" dominant-baseline="text-after-edge" fill-opacity="1">sintetazo</text><path fill="rgb(255,255,255)" stroke="rgb(85,85,85)" paint-order="fill stroke markers" d=" M 892.1689143759457 713.2193439461226 L 895.2046286616601 713.2193439461226 L 895.2046286616601 705.736308231837 L 910.3832000902314 705.736308231837 L 910.3832000902314 713.2193439461226 L 913.4189143759457 713.2193439461226 L 913.4189143759457 713.4318439461227 L 910.3832000902314 713.4318439461227 L 910.3832000902314 720.9148796604084 L 895.2046286616601 720.9148796604084 L 895.2046286616601 713.4318439461227 L 892.1689143759457 713.4318439461227 Z" fill-opacity="1" stroke-opacity="1" stroke-miterlimit="10" stroke-width="1.25"/><path fill="rgb(255,255,255)" stroke="#555555" paint-order="fill stroke markers" d=" M 822.8446466202963 583.9537247956797 L 822.8446466202963 583.9537247956797 L 822.8446466202963 583.9537247956797 A 15 15 0 0 1 837.8446466202963 598.9537247956797 L 837.8446466202963 598.9537247956797 L 837.8446466202963 598.9537247956797 A 15 15 0 0 1 822.8446466202963 613.9537247956797 L 822.8446466202963 613.9537247956797 L 822.8446466202963 613.9537247956797 A 15 15 0 0 1 807.8446466202963 598.9537247956797 L 807.8446466202963 598.9537247956797 L 807.8446466202963 598.9537247956797 A 15 15 0 0 1 822.8446466202963 583.9537247956797 L 822.8446466202963 583.9537247956797 Z" fill-opacity="1" stroke-miterlimit="10" stroke-width="1.25"/><path fill="rgb(255,255,255)" stroke="rgb(85,85,85)" paint-order="fill stroke markers" d="" fill-opacity="1" stroke-opacity="1" stroke-miterlimit="10" stroke-width="1.25"/><text fill="rgb(0,0,0)" stroke="none" font-family="Helvetica" font-size="11px" font-style="normal" font-weight="normal" text-decoration="normal" x="822.8446466202963" y="604.4537247956797" text-anchor="middle" dominant-baseline="text-after-edge" fill-opacity="1">fumarato</text><path fill="rgb(255,255,255)" stroke="#555555" paint-order="fill stroke markers" d=" M 809.5239932913983 746.0688486698148 L 847.0739088742623 746.0688486698148 L 847.0739088742623 746.0688486698148 A 8 8 0 0 1 855.0739088742623 754.0688486698148 L 855.0739088742623 783.6187642526788 L 855.0739088742623 783.6187642526788 A 8 8 0 0 1 847.0739088742623 791.6187642526788 L 771.9740777085342 791.6187642526788 L 771.9740777085342 791.6187642526788 A 8 8 0 0 1 763.9740777085342 783.6187642526788 L 763.9740777085342 754.0688486698148 L 763.9740777085342 754.0688486698148 A 8 8 0 0 1 771.9740777085342 746.0688486698148 L 809.5239932913983 746.0688486698148 Z" fill-opacity="1" stroke-miterlimit="10" stroke-width="1.25"/><path fill="rgb(255,255,255)" stroke="rgb(85,85,85)" paint-order="fill stroke markers" d="" fill-opacity="1" stroke-opacity="1" stroke-miterlimit="10" stroke-width="1.25"/><text fill="rgb(0,0,0)" stroke="none" font-family="Helvetica" font-size="11px" font-style="normal" font-weight="normal" text-decoration="normal" x="809.5239932913983" y="768.8438064612468" text-anchor="middle" dominant-baseline="text-after-edge" fill-opacity="1">sukcinat-</text><text fill="rgb(0,0,0)" stroke="none" font-family="Helvetica" font-size="11px" font-style="normal" font-weight="normal" text-decoration="normal" x="809.5239932913983" y="779.8438064612468" text-anchor="middle" dominant-baseline="text-after-edge" fill-opacity="1">dehidrogenazo</text><path fill="rgb(255,255,255)" stroke="#555555" paint-order="fill stroke markers" d=" M 902.7939143759459 583.9537247956795 L 902.7939143759459 583.9537247956795 L 902.7939143759459 583.9537247956795 A 15 15 0 0 1 917.7939143759459 598.9537247956795 L 917.7939143759459 598.9537247956795 L 917.7939143759459 598.9537247956795 A 15 15 0 0 1 902.7939143759459 613.9537247956795 L 902.7939143759459 613.9537247956795 L 902.7939143759459 613.9537247956795 A 15 15 0 0 1 887.7939143759459 598.9537247956795 L 887.7939143759459 598.9537247956795 L 887.7939143759459 598.9537247956795 A 15 15 0 0 1 902.7939143759459 583.9537247956795 L 902.7939143759459 583.9537247956795 Z" fill-opacity="1" stroke-miterlimit="10" stroke-width="1.25"/><path fill="rgb(255,255,255)" stroke="rgb(85,85,85)" paint-order="fill stroke markers" d="" fill-opacity="1" stroke-opacity="1" stroke-miterlimit="10" stroke-width="1.25"/><text fill="rgb(0,0,0)" stroke="none" font-family="Helvetica" font-size="11px" font-style="normal" font-weight="normal" text-decoration="normal" x="902.7939143759459" y="604.4537247956795" text-anchor="middle" dominant-baseline="text-after-edge" fill-opacity="1">FADH2</text><path fill="rgb(255,255,255)" stroke="#555555" paint-order="fill stroke markers" d=" M 1007.1721250569329 668.3446185377542 L 1007.1721250569329 668.3446185377542 L 1007.1721250569329 668.3446185377542 A 15 15 0 0 1 1022.1721250569329 683.3446185377542 L 1022.1721250569329 683.3446185377542 L 1022.1721250569329 683.3446185377542 A 15 15 0 0 1 1007.1721250569329 698.3446185377542 L 1007.1721250569329 698.3446185377542 L 1007.1721250569329 698.3446185377542 A 15 15 0 0 1 992.1721250569329 683.3446185377542 L 992.1721250569329 683.3446185377542 L 992.1721250569329 683.3446185377542 A 15 15 0 0 1 1007.1721250569329 668.3446185377542 L 1007.1721250569329 668.3446185377542 Z" fill-opacity="1" stroke-miterlimit="10" stroke-width="1.25"/><path fill="rgb(255,255,255)" stroke="rgb(85,85,85)" paint-order="fill stroke markers" d="" fill-opacity="1" stroke-opacity="1" stroke-miterlimit="10" stroke-width="1.25"/><text fill="rgb(0,0,0)" stroke="none" font-family="Helvetica" font-size="11px" font-style="normal" font-weight="normal" text-decoration="normal" x="1007.1721250569329" y="688.8446185377542" text-anchor="middle" dominant-baseline="text-after-edge" fill-opacity="1">FAD</text><path fill="rgb(255,255,255)" stroke="#555555" paint-order="fill stroke markers" d=" M 800.7035072555731 316.4272341279823 L 800.7035072555731 316.4272341279823 L 800.7035072555731 316.4272341279823 A 15 15 0 0 1 815.7035072555731 331.4272341279823 L 815.7035072555731 331.4272341279823 L 815.7035072555731 331.4272341279823 A 15 15 0 0 1 800.7035072555731 346.4272341279823 L 800.7035072555731 346.4272341279823 L 800.7035072555731 346.4272341279823 A 15 15 0 0 1 785.7035072555731 331.4272341279823 L 785.7035072555731 331.4272341279823 L 785.7035072555731 331.4272341279823 A 15 15 0 0 1 800.7035072555731 316.4272341279823 L 800.7035072555731 316.4272341279823 Z" fill-opacity="1" stroke-miterlimit="10" stroke-width="1.25"/><path fill="rgb(255,255,255)" stroke="rgb(85,85,85)" paint-order="fill stroke markers" d="" fill-opacity="1" stroke-opacity="1" stroke-miterlimit="10" stroke-width="1.25"/><text fill="rgb(0,0,0)" stroke="none" font-family="Helvetica" font-size="11px" font-style="normal" font-weight="normal" text-decoration="normal" x="800.7035072555731" y="336.9272341279823" text-anchor="middle" dominant-baseline="text-after-edge" fill-opacity="1">l-malato</text><path fill="rgb(255,255,255)" stroke="rgb(85,85,85)" paint-order="fill stroke markers" d=" M 794.9782342051403 440.6446607470492 L 794.9782342051403 443.6803750327635 L 787.4951984908547 443.6803750327635 L 787.4951984908547 458.85894646133494 L 794.9782342051403 458.85894646133494 L 794.9782342051403 461.8946607470492 L 795.1907342051404 461.8946607470492 L 795.1907342051404 458.85894646133494 L 802.673769919426 458.85894646133494 L 802.673769919426 443.6803750327635 L 795.1907342051404 443.6803750327635 L 795.1907342051404 440.6446607470492 Z" fill-opacity="1" stroke-opacity="1" stroke-miterlimit="10" stroke-width="1.25"/><path fill="rgb(255,255,255)" stroke="#555555" paint-order="fill stroke markers" d=" M 668.4981435920286 460.6986036723865 L 690.9981435920286 460.6986036723865 L 690.9981435920286 460.6986036723865 A 7.5 7.5 0 0 1 698.4981435920286 468.1986036723865 L 698.4981435920286 483.1986036723865 L 698.4981435920286 483.1986036723865 A 7.5 7.5 0 0 1 690.9981435920286 490.6986036723865 L 645.9981435920286 490.6986036723865 L 645.9981435920286 490.6986036723865 A 7.5 7.5 0 0 1 638.4981435920286 483.1986036723865 L 638.4981435920286 468.1986036723865 L 638.4981435920286 468.1986036723865 A 7.5 7.5 0 0 1 645.9981435920286 460.6986036723865 L 668.4981435920286 460.6986036723865 Z" fill-opacity="1" stroke-miterlimit="10" stroke-width="1.25"/><path fill="rgb(255,255,255)" stroke="rgb(85,85,85)" paint-order="fill stroke markers" d="" fill-opacity="1" stroke-opacity="1" stroke-miterlimit="10" stroke-width="1.25"/><text fill="rgb(0,0,0)" stroke="none" font-family="Helvetica" font-size="11px" font-style="normal" font-weight="normal" text-decoration="normal" x="668.4981435920286" y="481.1986036723865" text-anchor="middle" dominant-baseline="text-after-edge" fill-opacity="1">fumarazo</text><path fill="rgb(255,255,255)" stroke="#555555" paint-order="fill stroke markers" d=" M 714.0248099528845 387.4117748963745 L 714.0248099528845 387.4117748963745 L 714.0248099528845 387.4117748963745 A 15 15 0 0 1 729.0248099528845 402.4117748963745 L 729.0248099528845 402.4117748963745 L 729.0248099528845 402.4117748963745 A 15 15 0 0 1 714.0248099528845 417.4117748963745 L 714.0248099528845 417.4117748963745 L 714.0248099528845 417.4117748963745 A 15 15 0 0 1 699.0248099528845 402.4117748963745 L 699.0248099528845 402.4117748963745 L 699.0248099528845 402.4117748963745 A 15 15 0 0 1 714.0248099528845 387.4117748963745 L 714.0248099528845 387.4117748963745 Z" fill-opacity="1" stroke-miterlimit="10" stroke-width="1.25"/><path fill="rgb(255,255,255)" stroke="rgb(85,85,85)" paint-order="fill stroke markers" d="" fill-opacity="1" stroke-opacity="1" stroke-miterlimit="10" stroke-width="1.25"/><text fill="rgb(0,0,0)" stroke="none" font-family="Helvetica" font-size="11px" font-style="normal" font-weight="normal" text-decoration="normal" x="714.0248099528845" y="407.9117748963745" text-anchor="middle" dominant-baseline="text-after-edge" fill-opacity="1">H2O</text><path fill="rgb(255,255,255)" stroke="rgb(85,85,85)" paint-order="fill stroke markers" d=" M 847.2373477061612 225.29339449146474 L 847.2373477061612 228.32910877717902 L 839.7543119918756 228.32910877717902 L 839.7543119918756 243.50768020575046 L 847.2373477061612 243.50768020575046 L 847.2373477061612 246.54339449146474 L 847.4498477061613 246.54339449146474 L 847.4498477061613 243.50768020575046 L 854.932883420447 243.50768020575046 L 854.932883420447 228.32910877717902 L 847.4498477061613 228.32910877717902 L 847.4498477061613 225.29339449146474 Z" fill-opacity="1" stroke-opacity="1" stroke-miterlimit="10" stroke-width="1.25"/><path fill="rgb(255,255,255)" stroke="#555555" paint-order="fill stroke markers" d=" M 715.1291812632385 176.43423878187554 L 759.5656693176361 176.43423878187554 L 759.5656693176361 176.43423878187554 A 7.777677063979716 7.777677063979716 0 0 1 767.3433463816158 184.21191584585526 L 767.3433463816158 199.76726997381465 L 767.3433463816158 199.76726997381465 A 7.777677063979716 7.777677063979716 0 0 1 759.5656693176361 207.54494703779437 L 670.6926932088409 207.54494703779437 L 670.6926932088409 207.54494703779437 A 7.777677063979716 7.777677063979716 0 0 1 662.9150161448612 199.76726997381465 L 662.9150161448612 184.21191584585526 L 662.9150161448612 184.21191584585526 A 7.777677063979716 7.777677063979716 0 0 1 670.6926932088409 176.43423878187554 L 715.1291812632385 176.43423878187554 Z" fill-opacity="1" stroke-miterlimit="10" stroke-width="1.25"/><path fill="rgb(255,255,255)" stroke="rgb(85,85,85)" paint-order="fill stroke markers" d="" fill-opacity="1" stroke-opacity="1" stroke-miterlimit="10" stroke-width="1.25"/><text fill="rgb(0,0,0)" stroke="none" font-family="Helvetica" font-size="11px" font-style="normal" font-weight="normal" text-decoration="normal" x="715.1291812632385" y="191.98959290983495" text-anchor="middle" dominant-baseline="text-after-edge" fill-opacity="1">malat-</text><text fill="rgb(0,0,0)" stroke="none" font-family="Helvetica" font-size="11px" font-style="normal" font-weight="normal" text-decoration="normal" x="715.1291812632385" y="202.98959290983495" text-anchor="middle" dominant-baseline="text-after-edge" fill-opacity="1">dehidrogenazo</text><path fill="rgb(255,255,255)" stroke="#555555" paint-order="fill stroke markers" d=" M 876.1441584573962 309.6833201339374 L 876.1441584573962 309.6833201339374 L 876.1441584573962 309.6833201339374 A 15 15 0 0 1 891.1441584573962 324.6833201339374 L 891.1441584573962 324.6833201339374 L 891.1441584573962 324.6833201339374 A 15 15 0 0 1 876.1441584573962 339.6833201339374 L 876.1441584573962 339.6833201339374 L 876.1441584573962 339.6833201339374 A 15 15 0 0 1 861.1441584573962 324.6833201339374 L 861.1441584573962 324.6833201339374 L 861.1441584573962 324.6833201339374 A 15 15 0 0 1 876.1441584573962 309.6833201339374 L 876.1441584573962 309.6833201339374 Z" fill-opacity="1" stroke-miterlimit="10" stroke-width="1.25"/><path fill="rgb(255,255,255)" stroke="rgb(85,85,85)" paint-order="fill stroke markers" d="" fill-opacity="1" stroke-opacity="1" stroke-miterlimit="10" stroke-width="1.25"/><text fill="rgb(0,0,0)" stroke="none" font-family="Helvetica" font-size="11px" font-style="normal" font-weight="normal" text-decoration="normal" x="876.1441584573962" y="330.1833201339374" text-anchor="middle" dominant-baseline="text-after-edge" fill-opacity="1">NAD+</text><path fill="rgb(255,255,255)" stroke="#555555" paint-order="fill stroke markers" d=" M 906.1251338657645 223.07161339865036 L 906.1251338657645 223.07161339865036 L 906.1251338657645 223.07161339865036 A 15 15 0 0 1 921.1251338657645 238.07161339865036 L 921.1251338657645 238.07161339865036 L 921.1251338657645 238.07161339865036 A 15 15 0 0 1 906.1251338657645 253.07161339865036 L 906.1251338657645 253.07161339865036 L 906.1251338657645 253.07161339865036 A 15 15 0 0 1 891.1251338657645 238.07161339865036 L 891.1251338657645 238.07161339865036 L 891.1251338657645 238.07161339865036 A 15 15 0 0 1 906.1251338657645 223.07161339865036 L 906.1251338657645 223.07161339865036 Z" fill-opacity="1" stroke-miterlimit="10" stroke-width="1.25"/><path fill="rgb(255,255,255)" stroke="rgb(85,85,85)" paint-order="fill stroke markers" d="" fill-opacity="1" stroke-opacity="1" stroke-miterlimit="10" stroke-width="1.25"/><text fill="rgb(0,0,0)" stroke="none" font-family="Helvetica" font-size="11px" font-style="normal" font-weight="normal" text-decoration="normal" x="906.1251338657645" y="243.57161339865036" text-anchor="middle" dominant-baseline="text-after-edge" fill-opacity="1">NADH</text><path fill="rgb(255,255,255)" stroke="#555555" paint-order="fill stroke markers" d=" M 582.1079429574867 -33.13246928971682 L 582.1079429574867 897.7824615142885 Q 587.1079429574867 912.7824615142885 682.1079429574867 912.7824615142885 L 1636.8021853040968 912.7824615142885 Q 1731.8021853040968 912.7824615142885 1736.8021853040968 897.7824615142885 L 1736.8021853040968 -33.13246928971682 Q 1731.8021853040968 -48.13246928971682 1636.8021853040968 -48.13246928971682 L 682.1079429574867 -48.13246928971682 Q 587.1079429574867 -48.13246928971682 582.1079429574867 -33.13246928971682 Z" fill-opacity="0.5" stroke-miterlimit="10" stroke-width="3.25"/><path fill="rgb(255,255,255)" stroke="rgb(85,85,85)" paint-order="fill stroke markers" d="" fill-opacity="0.5" stroke-opacity="1" stroke-miterlimit="10" stroke-width="3.25"/><text fill="rgb(0,0,0)" stroke="none" font-family="Helvetica" font-size="14px" font-style="normal" font-weight="normal" text-decoration="normal" x="1159.4550641307917" y="912.7824615142885" text-anchor="middle" dominant-baseline="text-after-edge" fill-opacity="1">mitoondrio</text><g transform="scale(0.5,0.5) translate(1158.9658859149733,-101.51493857943365)"/></g></svg>